<svg width="65" height="32" viewBox="0 0 65 32" fill="none" xmlns="http://www.w3.org/2000/svg">
<g clip-path="url(#clip0)">
<path d="M0.630371 31.3492H33.0441L64.8297 0.514893H0.630371V31.3492Z" fill="#3F5471"/>
<path fill-rule="evenodd" clip-rule="evenodd" d="M38.6976 6.31004L32.4159 6.30882V20.8938L26.8879 6.30882H21.4857L16.7115 18.5065C16.209 15.4339 12.9425 14.3719 10.3042 13.5769C8.67094 13.0429 6.78642 12.2577 6.91205 11.3993C6.91205 10.6873 7.7915 10.0337 9.67601 10.1313C10.9324 10.1934 12.0631 10.2946 14.3245 11.3408L16.5859 7.62564C14.4501 6.62096 11.6862 5.98571 9.42474 5.98328C6.66078 5.98328 4.39936 6.82702 3.01738 8.22553C2.13794 9.19851 1.50977 10.4336 1.50977 11.8029C1.50977 13.6867 2.26357 15.023 3.64555 16.0874C5.02753 16.9836 6.53515 17.5676 8.04276 17.9956C9.80165 18.5236 11.1836 18.9808 11.1836 19.9611C11.1836 20.3232 11.058 20.6524 10.8067 20.917C10.3042 21.3547 9.67601 21.5205 8.67093 21.5413C6.91205 21.573 5.65571 21.3011 3.51992 20.0903L1.50977 23.8518C3.64555 25.0174 6.15824 25.7027 8.67093 25.7027L9.04784 25.7002C11.1836 25.6612 13.0681 25.0455 14.4501 23.9262C14.5758 23.8603 14.5758 23.7994 14.7014 23.7384L14.0732 25.3759H19.8524L20.7319 22.5374C21.7369 22.8642 22.8676 23.0544 24.124 23.0544C25.3803 23.0544 26.3854 22.8703 27.3905 22.5606L28.3956 25.3759H37.6925V19.488H39.8283C44.7281 19.488 47.6177 17.0482 47.6177 12.9563C47.6177 8.4011 44.8537 6.31004 38.6976 6.31004ZM24.124 18.7967C23.3702 18.7967 22.742 18.6699 22.1138 18.448L24.124 12.3126L26.1341 18.4675C25.506 18.6772 24.8778 18.7967 24.124 18.7967ZM39.0745 15.2681H37.6925V10.3215H39.0745C40.959 10.3215 42.4666 10.9201 42.4666 12.7698C42.4666 14.6719 40.959 15.2681 39.0745 15.2681Z" fill="white"/>
<path d="M40.9591 29.3788C40.9591 28.4363 41.7129 27.7181 42.5923 27.7181C43.4718 27.7181 44.2256 28.4363 44.2256 29.3788C44.2256 30.3566 43.4718 31.0614 42.5923 31.0614C41.7129 31.0614 40.9591 30.3566 40.9591 29.3788ZM42.5923 31.3955C43.7231 31.3955 44.7282 30.5408 44.7282 29.3788C44.7282 28.2339 43.7231 27.3926 42.5923 27.3926C41.4616 27.3926 40.4565 28.2339 40.4565 29.3788C40.4565 30.5408 41.4616 31.3955 42.5923 31.3955ZM42.2154 29.5458H42.5923L43.2205 30.5408H43.5974L42.9693 29.5263C43.2205 29.4849 43.5974 29.3056 43.5974 28.896C43.5974 28.4363 43.2205 28.2339 42.718 28.2339H41.8385V30.5408H42.2154V29.5458ZM42.2154 29.2483V28.5277H42.718C42.8436 28.5277 43.2205 28.5838 43.2205 28.8752C43.2205 29.2252 42.8436 29.2483 42.5923 29.2483H42.2154Z" fill="#3F5471"/>
</g>
<defs>
<clipPath id="clip0">
<rect width="64.1993" height="30.8807" fill="white" transform="translate(0.630371 0.514893)"/>
</clipPath>
</defs>
</svg>
