<svg width="54" height="22" viewBox="0 0 54 22" fill="none" xmlns="http://www.w3.org/2000/svg">
<path d="M0.305664 0.572632V2.01822H10.5874V0.572632H0.305664ZM12.0441 0.572632V2.01822H26.6961C26.6961 2.01822 25.1995 0.572632 23.2173 0.572632H12.0441ZM29.5704 0.572632V2.01822H38.4346L37.9085 0.572632H29.5704ZM44.7898 0.572632L44.2636 2.01822H53.0474V0.572632H44.7898ZM0.305664 3.38393V4.82952H10.5874V3.38393H0.305664ZM12.0441 3.38599V4.82957H28.3963C28.3963 4.82957 28.2053 3.71698 27.8722 3.38599H12.0441ZM29.5704 3.38599V4.82957H39.4064L38.9195 3.38599H29.5704ZM43.7374 3.38599L43.2505 4.82957H53.0474V3.38599H43.7374ZM3.26038 6.19524V7.64288H7.71313V6.19524H3.26038ZM14.9989 6.19524V7.64288H19.4516V6.19524H14.9989ZM23.7826 6.19524V7.64288H28.2354C28.2354 7.64288 28.5181 6.87839 28.5181 6.19524H23.7826ZM32.5251 6.19524V7.64288H40.4196L39.8934 6.19524H32.5251ZM42.7677 6.19524L42.2395 7.64288H50.1731V6.19524H42.7677ZM3.26038 9.00865V10.4542H7.71313V9.00865H3.26038ZM14.9989 9.00865V10.4542H26.3722C26.3722 10.4542 27.3236 9.71251 27.6267 9.00865H14.9989ZM32.5251 9.00865V10.4542H36.9779V9.64954L37.2606 10.4542H45.4171L45.7204 9.64954V10.4542H50.1731V9.00865H41.8144L41.3708 10.2331L40.9251 9.00865H32.5251ZM3.26038 11.82V13.2655H7.71313V11.82H3.26038ZM14.9989 11.82V13.2655H27.6267C27.3235 12.564 26.3722 11.82 26.3722 11.82H14.9989ZM32.5251 11.82V13.2655H36.9779V11.82H32.5251ZM37.7867 11.82L38.3252 13.2655H44.441L44.9528 11.82H37.7867ZM45.7203 11.82V13.2655H50.1731V11.82H45.7203ZM3.26038 14.6313V16.0768H7.71313V14.6313H3.26038ZM14.9989 14.6313V16.0768H19.4516V14.6313H14.9989ZM23.7826 14.6313V16.0768H28.5181C28.5181 15.3946 28.2353 14.6313 28.2353 14.6313H23.7826ZM32.5251 14.6313V16.0768H36.9779V14.6313H32.5251ZM38.7978 14.6313L39.3198 16.0768H43.4197L43.9459 14.6313H38.7978ZM45.7203 14.6313V16.0768H50.1731V14.6313H45.7203ZM0.386112 17.4426V18.8902H10.6678V17.4426H0.386112ZM12.0441 17.4426V18.8902H27.8722C28.2053 18.5587 28.3963 17.4426 28.3963 17.4426H12.0441ZM29.6509 17.4426V18.8902H36.9779V17.4426H29.6509ZM39.8109 17.4426L40.3473 18.8902H42.4334L42.9368 17.4426H39.8109ZM45.7203 17.4426V18.8902H53.1279V17.4426H45.7203ZM0.386112 20.2559V21.7015H10.6678V20.2559H0.386112ZM12.0441 20.2559V21.6994H23.2173C25.1995 21.6994 26.6961 20.2559 26.6961 20.2559H12.0441ZM29.6509 20.2559V21.7015H36.9779V20.2559H29.6509ZM40.8281 20.2559L41.344 21.6974L41.4327 21.6994L41.9568 20.2559H40.8281ZM45.7203 20.2559V21.7015H53.1279V20.2559H45.7203Z" fill="#3F5471"/>
</svg>
