<svg width="88" height="55" viewBox="0 0 88 55" fill="none" xmlns="http://www.w3.org/2000/svg">
<path d="M24.8417 34.1432C27.3077 34.1432 29.2144 32.2284 29.2144 29.395V18.3673H31.8834V36.2363H29.2398V34.577C28.045 35.8277 26.3927 36.5424 24.5365 36.5424C20.7227 36.5424 17.7988 33.76 17.7988 29.5499V18.3702H20.4679V29.395C20.4679 32.2795 22.3491 34.1432 24.8409 34.1432" fill="#3F5471"/>
<path d="M33.867 18.368H36.4347V24.8773C37.0336 24.2615 37.7494 23.7724 38.5398 23.4391C39.3301 23.1059 40.1791 22.9351 41.0363 22.937C44.8501 22.937 47.8499 25.9748 47.8499 29.7528C47.8499 33.5053 44.8501 36.5426 41.0363 36.5426C40.175 36.545 39.3218 36.3746 38.5269 36.0415C37.732 35.7084 37.0113 35.2192 36.4072 34.6028V36.2357H33.8633L33.867 18.368ZM40.8587 34.2711C43.2996 34.2711 45.3081 32.2542 45.3081 29.7528C45.3081 27.2255 43.2996 25.2345 40.8587 25.2345C38.3923 25.2345 36.3839 27.2255 36.3839 29.7528C36.3839 32.2542 38.3669 34.2711 40.8587 34.2711Z" fill="#3F5471"/>
<path d="M55.5291 22.9625C59.2662 22.9625 62.0124 25.847 62.0124 29.7273V30.5697H51.4626C51.8187 32.6884 53.5728 34.2712 55.7581 34.2712C57.2594 34.2712 58.5297 33.6582 59.4956 32.3564L61.3518 33.7348C60.0548 35.4708 58.1227 36.5172 55.7581 36.5172C51.8683 36.5172 48.8682 33.6071 48.8682 29.7273C48.8682 26.0514 51.7411 22.9625 55.5295 22.9625H55.5291ZM51.5122 28.5277H59.4192C58.9872 26.5363 57.3853 25.2089 55.4786 25.2089C53.5719 25.2089 51.9701 26.5363 51.5122 28.5277Z" fill="#3F5471"/>
<path d="M68.9021 25.5155C67.2239 25.5155 66.0037 26.8173 66.0037 28.8338V36.2368H63.4355V23.218H65.9795V24.8275C66.615 23.7807 67.6576 23.1171 69.0814 23.1171H69.971V25.5167L68.9021 25.5155Z" fill="#3F5471"/>
</svg>
