<svg width="78" height="37" viewBox="0 0 78 37" fill="none" xmlns="http://www.w3.org/2000/svg">
<path d="M69.1762 11.8544C71.1916 9.84394 73.4275 10.4357 73.4275 12.3854C73.4275 14.2896 71.1384 16.3456 68.3777 17.9387C68.1115 18.0905 67.7921 18.265 67.4727 18.4243C67.3662 17.9463 67.3054 17.4153 67.3054 16.8235C67.3054 15.1924 67.9975 13.0303 69.1762 11.8544ZM58.4226 32.3835C55.7456 35.0539 52.3233 31.6476 56.316 27.6647C57.221 26.7619 58.704 25.768 60.2478 24.8652C61.13 27.0426 60.4304 30.373 58.4226 32.3835ZM41.3643 21.6865C39.3109 21.6865 37.9801 19.2285 38.3907 16.1938C38.7938 13.1592 40.7863 10.7012 42.8397 10.7012C44.741 10.7012 46.0187 12.8103 45.8742 15.5338C45.8209 15.9283 45.7753 16.3076 45.7373 16.6718C45.1973 19.4788 43.3036 21.6865 41.3643 21.6865ZM14.2445 20.6775C13.5752 21.3451 12.7539 21.7017 11.9249 21.7017C11.1492 21.7017 10.48 21.3527 9.92478 20.7989C8.0235 18.9022 8.19081 14.2517 10.6321 11.8088C11.3241 11.1185 12.1607 10.7164 13.0201 10.7164C13.7882 10.7164 14.465 11.0578 15.0202 11.6116C16.8074 13.3944 16.9139 18.0146 14.2445 20.6775ZM77.8233 21.6713C77.8233 21.6713 77.0627 20.6092 76.827 20.3057C76.6673 20.1085 76.4696 19.8657 75.9448 20.2223C74.7888 20.9961 73.4883 21.7017 71.8837 21.7017C70.6592 21.7017 69.5869 21.3906 68.7884 20.7154C69.123 20.5637 69.4728 20.3968 69.8303 20.2071C71.724 19.1829 73.3058 17.8856 74.0663 17.127C77.7548 13.4475 76.5988 7.96248 72.1042 7.96248C67.8606 7.96248 64.5067 12.0895 64.5067 16.6718C64.5067 17.3622 64.5904 18.3484 64.887 19.3954C64.636 19.5167 62.9553 20.3285 60.9399 21.4361C59.0462 20.0175 56.0878 20.6547 56.0878 20.6547C58.8333 16.7704 62.9629 10.7012 63.3127 10.2005C63.5637 9.84394 63.5256 9.48737 63.2823 8.92597C62.9705 8.25077 62.6587 8.12938 62.2328 8.12938H53.6542C53.3728 8.12938 53.1523 8.25836 53.0686 8.57699C52.9926 8.88804 52.81 9.97291 52.7796 10.3446C52.7416 10.7164 53.0914 10.944 53.4565 10.944H59.6698L54.0497 18.9629C54.0116 18.9933 53.9736 19.0312 53.9432 19.0843C53.1294 20.2602 51.8746 21.9065 50.3688 21.9065C49.4334 21.9065 48.2774 21.2389 48.2774 19.054C48.2774 16.9146 49.1444 12.393 49.7756 8.87286C49.844 8.49354 49.7147 8.1218 49.1063 8.1218H47.5853C47.2355 8.1218 47.0378 8.33422 46.9845 8.6301C46.8933 9.16874 46.802 9.69979 46.7107 10.2081C45.9578 8.77424 44.7562 7.96248 43.0146 7.96248C41.4024 7.96248 39.8281 8.56182 38.5428 9.83635C35.3335 13.0379 35.9419 18.2574 33.1736 21.0189C31.9796 22.21 30.6259 21.8458 30.6259 19.5016C30.6259 16.8235 31.6526 13.842 32.8314 11.0123C33.0367 10.5115 32.8162 10.0943 32.5956 9.76807C32.2838 9.31288 32.1621 9.07011 31.5994 9.07011C30.7248 9.07011 29.3254 9.62393 26.5267 9.62393C25.9335 9.62393 25.3632 9.60117 24.8536 9.56324C24.884 9.14598 24.8916 8.86528 24.8993 8.75907C24.9145 8.36457 24.7776 8.11421 24.3593 8.11421H22.9295C22.4124 8.11421 22.2831 8.35698 22.2223 8.75907C21.9789 10.466 21.515 16.7325 18.3665 19.8733C18.0014 20.2375 17.7809 20.3513 17.7809 20.3513C18.5642 18.8188 18.9901 16.8084 18.9901 15.2152C18.9901 10.7316 16.3283 7.9549 12.9896 7.9549C11.9706 7.9549 10.8906 8.28112 9.87915 8.9108C10.3507 6.17965 10.7842 3.623 10.9363 2.75813C11.0655 2.02983 10.7994 1.6505 10.6092 1.34704C10.2898 0.85392 10.0084 0.633911 9.58255 0.633911H4.65443C4.37304 0.633911 4.1601 0.83116 4.09165 1.14221C4.008 1.50636 3.83308 2.46226 3.81027 2.90228C3.79506 3.28919 4.06123 3.43333 4.37304 3.43333H7.97787C7.39988 6.96106 6.30474 13.7965 5.97012 15.5111C5.55184 17.696 3.99279 20.374 1.36902 21.3223C1.042 21.4437 0.905111 21.7396 1.02679 22.0886C1.14847 22.4375 1.59718 23.3479 1.73407 23.5831C1.87096 23.8259 2.17517 23.9852 2.46416 23.8866C3.82548 23.4086 5.07271 22.6348 6.06138 21.6561C6.30474 21.4134 6.5405 21.1403 6.76866 20.8444C7.94745 23.4845 10.3431 24.448 12.7995 24.448C15.5754 24.448 18.5718 23.4845 20.6708 21.383C23.1273 18.9402 24.154 14.889 24.5874 12.0213C25.1959 12.1047 25.8879 12.173 26.5496 12.173C28.2379 12.173 29.6525 11.8164 29.6525 11.8164C29.6525 11.8164 27.9489 16.3228 27.9489 19.6457C27.9489 23.3934 29.7437 24.4556 31.7363 24.4556C33.782 24.4556 35.2194 22.9231 36.2461 21.0265C36.5123 21.6182 36.9077 22.3237 37.4477 22.8624C38.3755 23.7879 39.5239 24.4556 41.1818 24.4556C43.0755 24.4556 44.703 23.3631 45.859 21.6865C46.0643 22.392 46.3837 22.9838 46.8172 23.4162C47.4028 24.0004 48.4751 24.4556 49.8212 24.4556C52.1332 24.4556 53.4717 22.7258 57.0689 22.7258C57.5252 22.7258 57.9359 22.7941 58.3085 22.9231C56.6582 23.9245 55.0916 25.0018 54.1333 25.9577C51.1673 28.9164 51.0304 32.8083 52.9773 34.7505C55.3349 37.1023 58.6964 35.9264 60.7954 33.8325C63.2519 31.382 63.9667 26.7467 62.5446 23.5755C64.2633 22.6727 65.7007 22.0051 66.0429 21.8458C67.1153 23.31 68.8949 24.4556 71.8304 24.4556C73.9294 24.4556 76.0437 23.7121 77.694 22.4679C77.9525 22.2934 78.0058 21.9292 77.8233 21.6713Z" fill="#3F5471"/>
</svg>
