<svg width="137" height="22" viewBox="0 0 137 22" fill="none" xmlns="http://www.w3.org/2000/svg">
<path fill-rule="evenodd" clip-rule="evenodd" d="M4.05065 8.37507C4.03653 8.42932 3.93374 8.55384 3.89762 8.57139C3.89762 8.65643 3.84584 8.73713 3.76692 8.78964C3.76692 8.92312 3.54069 8.98212 3.51227 9.12439C3.48631 9.25411 3.43067 9.37696 3.33032 9.44425C3.33032 9.5644 3.1341 9.61029 3.1341 9.72799C3.0754 9.75779 3.02153 9.94623 2.98147 9.94623C2.98147 10.0276 2.89239 10.0843 2.87216 10.1862C2.82569 10.2098 2.76303 10.3176 2.76303 10.3828C2.65985 10.4338 2.69258 10.5704 2.58841 10.6224C2.58841 10.696 2.50109 10.7868 2.50109 10.8628C2.46222 10.8628 2.37017 11.2628 2.37017 11.321C2.28523 11.321 2.31699 12.0518 2.34817 12.17C2.41388 12.4201 2.42956 12.6897 2.58841 12.8485C2.62995 12.8899 2.65551 12.9628 2.67571 13.0232C2.70748 13.0387 2.82293 13.1527 2.85026 13.1867C2.91351 13.2656 3.33032 13.3668 3.33032 13.3941C3.54059 13.4242 3.65442 13.5468 3.8322 13.5468C3.8322 13.5458 4.42655 13.7333 4.48682 13.7432C4.48682 13.8295 4.77068 13.8006 4.77068 13.8741C4.95773 13.8931 5.14469 13.9116 5.33176 13.9303C5.5198 13.9494 5.7112 14.0651 5.90538 14.1141C5.90538 14.1866 6.30997 14.2177 6.41079 14.2056C6.65212 14.1768 6.84304 14.2451 7.04558 14.2451C7.37215 14.2451 7.67246 14.3324 8.00052 14.3324C8.00052 14.4431 8.76699 14.3105 8.82956 14.3105C8.82956 14.2384 9.6353 14.1541 9.74 14.1376C9.90111 14.1121 10.0623 14.0867 10.2233 14.0603C10.3803 14.0347 10.437 13.9242 10.6043 13.8741C10.8187 13.8097 10.9089 13.7254 11.0989 13.6778C11.0989 13.6805 11.5018 13.4812 11.5355 13.4812C11.5946 13.3921 11.7036 13.3663 11.7647 13.2849C11.8239 13.2063 11.9579 13.0955 12.0481 13.0232C12.1505 12.9413 12.2556 12.6612 12.2556 12.543C12.3448 12.543 12.3194 12.0958 12.2556 12.0193C12.1354 11.9793 12.0944 11.9293 11.9647 11.9392C11.7729 11.954 11.6123 11.9853 11.4045 11.9974C11.4045 12.06 10.9463 12.0881 10.9463 12.1503C10.8134 12.1503 10.6799 12.172 10.5754 12.172C10.5754 12.225 10.3366 12.2376 10.2698 12.2376C10.2698 12.3065 9.6371 12.2889 9.6371 12.3466C9.59131 12.3466 9.37496 12.3807 9.37496 12.4122C9.29613 12.4167 8.91687 12.4186 8.91687 12.4775C8.76356 12.4675 8.35904 12.543 8.32767 12.543C8.32767 12.5893 6.90924 12.8234 6.79637 12.8532C6.65341 12.8912 6.59727 12.832 6.45371 12.8406C6.32969 12.8485 6.2936 12.7832 6.21081 12.7832C6.17588 12.7122 6.15863 12.7669 6.1237 12.6957C6.05475 12.6957 6.0358 12.6298 5.98183 12.5866C5.89244 12.5153 5.89146 12.4198 5.81806 12.3466C5.77356 12.3019 5.70963 12.0193 5.62151 12.0193C5.58875 11.9204 5.39599 11.4084 5.33808 11.4084C5.33808 11.3008 5.30471 11.2714 5.33679 11.1575C5.36541 11.0556 5.38177 10.9333 5.38177 10.8518C5.38177 10.815 5.42332 10.6224 5.44719 10.6224C5.45489 10.4726 5.49071 10.2822 5.49071 10.1643C5.56873 10.1643 5.56953 9.70599 5.68733 9.70599C5.68733 9.64186 5.71307 9.56243 5.77454 9.53156C5.80887 9.39571 5.87893 9.33403 5.96003 9.2259C6.0425 9.11598 6.26546 9.0708 6.39273 9.01882C6.45146 8.99465 6.8 8.98773 6.8 8.96406C6.88714 8.96406 7.43302 8.9014 7.43302 8.83333C7.56918 8.83333 7.73542 8.80325 7.89841 8.79684C8.03535 8.79151 8.0969 8.74602 8.19674 8.74602C8.19674 8.61529 8.81958 8.58768 8.96039 8.57139C8.96039 8.54573 9.13974 8.50598 9.17871 8.50598C9.17871 8.45319 9.47507 8.45241 9.54099 8.44905C9.78824 8.4374 9.93781 8.33135 10.1607 8.33135C10.3771 8.33135 10.5262 8.24651 10.7644 8.23446C10.9535 8.22461 11.1428 8.21494 11.3318 8.20537C11.4525 8.19915 11.5197 8.15672 11.6446 8.15672C11.6446 8.14952 12.296 8.06971 12.3648 8.06971C12.3648 8.07019 12.6625 7.99965 12.7149 7.98131C12.8725 7.92714 13.0739 7.89509 13.2158 7.89509C13.2158 7.89312 13.3805 7.82305 13.4138 7.80876C13.5501 7.75054 13.618 7.78459 13.7259 7.79494C13.8475 7.80658 13.9767 7.7831 14.0939 7.75302C14.1937 7.72735 14.3181 7.67467 14.4134 7.70861C14.4735 7.73003 14.8086 7.69785 14.8086 7.74205C14.9284 7.74205 14.958 7.78577 15.0706 7.78577C15.0706 7.79759 15.5094 7.89509 15.5506 7.89509C15.5506 7.94292 15.7092 7.93423 15.7472 7.93848C15.8182 7.98783 15.8892 8.03675 15.9599 8.08598C16.0487 8.14725 16.1152 8.2532 16.1399 8.36045C16.1753 8.5127 16.2376 8.59142 16.271 8.72432C16.363 8.77019 16.3702 8.9164 16.4671 8.96406C16.5327 9.15892 16.6203 9.26942 16.6203 9.46625C16.6797 9.46625 16.6933 9.92451 16.7511 9.92451C16.7511 9.99101 16.8731 10.3608 16.9037 10.3608C16.9166 10.5189 16.9441 10.6466 16.9848 10.7975C17.0362 10.9879 16.9479 11.1972 16.9037 11.3822C16.8848 11.4618 16.8279 11.6089 16.7511 11.6483C16.7511 11.705 16.7024 11.8062 16.6638 11.8446C16.6212 11.8874 16.5327 12.004 16.5327 12.063C16.5104 12.063 16.4236 12.245 16.4236 12.281C16.3661 12.281 16.3563 12.5649 16.2929 12.5649C16.2785 12.6214 16.209 12.8049 16.1618 12.8049C16.1618 12.9575 16.031 13.1329 16.031 13.3285C16.0282 13.3285 15.8365 13.7224 15.8418 13.7794C15.8656 14.0403 15.7583 14.135 15.7252 14.398C15.7084 14.5325 15.6598 14.616 15.6598 14.7253C15.6337 14.7253 15.5945 14.8634 15.5945 14.8999C15.5177 14.8999 15.6056 15.2926 15.5291 15.2926C15.5002 15.4342 15.4601 15.4751 15.4418 15.6416C15.4325 15.7249 15.3501 16.1872 15.3107 16.1872C15.3107 16.2294 15.2736 16.4272 15.2452 16.4272C15.2452 16.6255 15.263 16.7533 15.2506 16.9511C15.2423 17.0855 15.2017 17.155 15.2017 17.3144C15.2017 17.3643 15.1772 17.5623 15.136 17.5623C15.136 17.6684 15.0968 17.7596 15.1302 17.8968C15.1697 18.0605 15.1799 18.1853 15.1799 18.3476C15.2609 18.3476 15.2233 19.0481 15.2233 19.1443C15.2233 19.4087 15.1377 19.6105 15.1198 19.8968C15.1027 20.1721 14.9167 20.3146 14.8745 20.53C14.7568 20.5884 13.6309 21.2038 13.377 21.1308C13.3178 21.1139 13.3512 21.0756 13.2813 21.0756C13.2813 21.0282 13.1594 21.0092 13.1213 20.9954C13.0462 20.9682 12.9196 20.8987 12.8886 20.8353C12.8501 20.8353 12.4082 20.6657 12.4082 20.6826C12.3627 20.6826 12.2337 20.6392 12.2337 20.5953C12.1911 20.5953 12.1164 20.565 12.0808 20.53C11.9716 20.4215 11.7298 20.3694 11.7477 20.164C11.758 20.0472 11.794 19.9747 11.7319 19.8534C11.6873 19.8142 11.673 19.6134 11.6446 19.6134C11.6578 19.2664 11.7101 19.0017 11.7101 18.6882C11.7101 18.3592 11.6882 18.0122 11.6882 17.7149C11.6765 17.7149 11.8037 17.029 11.7755 16.9291C11.7389 16.8004 11.7353 16.5436 11.646 16.4605C11.5445 16.3658 11.4807 16.3912 11.3391 16.4055C11.3391 16.4304 10.9978 16.565 10.9244 16.5801C10.9244 16.6255 10.6768 16.6607 10.6298 16.6671C10.5022 16.6847 10.4178 16.7545 10.3136 16.7545C10.3136 16.8447 9.7679 16.786 9.7679 16.9077C9.5631 16.9077 9.40663 17.0049 9.21503 17.0238C8.9812 17.047 8.89724 17.1471 8.66233 17.1471C8.46964 17.1471 8.2882 17.2162 8.06513 17.2061C7.8682 17.1972 7.7286 17.1173 7.53493 17.1738C7.32282 17.2354 7.17946 17.1471 6.99655 17.1471C6.86277 17.1185 6.62863 17.1913 6.42926 17.1913C6.42926 17.2614 4.96849 17.0384 4.8361 17.0384C4.8361 16.992 4.2907 16.9498 4.2907 16.864C4.01168 16.8286 3.86163 16.713 3.54877 16.6893C3.41637 16.6304 3.24599 16.5145 3.10124 16.5145C3.05755 16.5145 2.91565 16.4909 2.91565 16.4489C2.84521 16.4489 2.50109 16.3514 2.50109 16.2748C2.33455 16.2748 2.17137 16.0563 1.99921 16.0563C1.99921 16.0338 1.71142 15.8599 1.65025 15.8599C1.56501 15.7674 1.39057 15.6434 1.3445 15.5546C1.26005 15.5546 1.13781 15.4021 1.08285 15.3363C1.0277 15.3363 0.909706 15.2287 0.886323 15.1836C0.789339 15.1054 0.733597 15.0474 0.733597 14.9434C0.725704 14.9434 0.615995 14.7653 0.602478 14.7253C0.574953 14.7253 0.48527 14.5477 0.471752 14.5071C0.413641 14.3326 0.364607 14.1373 0.336489 13.974C0.319619 13.8754 0.289823 13.7787 0.262593 13.6825C0.252333 13.6457 0.18771 13.5468 0.18623 13.5342C0.1811 13.4916 0.157126 13.0668 0.144398 13.0668C0.144398 12.8108 0.0513619 10.3608 0.0787894 10.3608C0.0787894 10.2923 0.120128 9.85892 0.188006 9.85892C0.188006 9.82477 0.297223 9.35297 0.311726 9.18259C0.31804 9.10661 0.406145 8.59309 0.493557 8.59309C0.493557 8.41748 0.685846 8.26258 0.733597 8.06971C0.8953 7.98801 0.921544 7.7246 1.06105 7.65474C1.06105 7.53742 1.25719 7.49155 1.25719 7.37118C1.36719 7.29788 1.37676 7.15877 1.47562 7.10924C1.47562 7.03574 1.60644 6.99874 1.60644 6.91281C1.72237 6.81345 1.79992 6.72743 1.89019 6.60756C1.97425 6.56533 1.99122 6.44329 2.08662 6.41083C2.11326 6.33014 2.15233 6.31011 2.21764 6.2582C2.21764 6.21984 2.25415 6.15619 2.28306 6.12727C2.3536 6.05703 2.63449 5.5818 2.69763 5.5818C2.73345 5.43695 2.82165 5.30427 2.94498 5.19622C3.00721 5.14147 3.05755 4.9924 3.1558 4.9924C3.18078 4.94219 3.22131 4.9628 3.22131 4.92698C3.29658 4.92698 3.26385 4.87311 3.33032 4.83987C3.33032 4.75758 3.532 4.57813 3.61409 4.57813C3.68402 4.48499 3.74689 4.45569 3.84802 4.39659C4.009 4.30255 4.66273 3.50292 4.81427 3.46523C4.84221 3.40979 4.95831 3.37792 5.01072 3.37792C5.01072 3.36105 5.22687 3.22499 5.27266 3.22499C5.30325 3.16382 6.1313 2.5112 6.34194 2.26474C6.40635 2.26474 6.52316 2.16657 6.56006 2.11212C6.64738 2.0835 6.6766 2.02874 6.73461 1.95928C6.78285 1.95928 6.84579 1.91291 6.87658 1.87187C6.92306 1.80981 6.98223 1.76354 7.04015 1.71194C7.11534 1.64544 7.07657 1.63953 7.12746 1.58823C7.23501 1.48069 7.41249 1.45574 7.52033 1.34847C7.57716 1.29174 7.63854 1.12995 7.73848 1.12995C7.83031 1.01945 7.90591 0.950872 8.02222 0.911901C8.13322 0.74518 8.37425 0.734016 8.4804 0.628265C8.52056 0.587805 8.66559 0.475334 8.72034 0.475334C8.75535 0.405499 8.9151 0.36236 9.00418 0.344604C9.00418 0.297247 9.22233 0.287876 9.22233 0.235292C9.27016 0.223749 9.41885 0.181824 9.41885 0.147978C9.56863 0.0984497 9.63866 0.0826645 9.81172 0.0826645C9.81172 0.0253563 10.1188 0.0205059 10.1849 0.0218964C10.3837 0.0269222 10.5827 0.0315685 10.7814 0.0364952C10.8927 0.0392723 10.979 -0.00512886 11.1132 0.0118427C11.3703 0.0446777 11.5399 0.147978 11.7682 0.147978C11.8109 0.147978 12.0156 0.185284 12.0156 0.213596C12.1271 0.241026 12.2864 0.278507 12.3952 0.349051C12.6972 0.544109 12.9149 0.762432 13.1793 1.01374C13.3433 1.16942 13.5363 1.36822 13.5867 1.56651C13.6832 1.61506 13.7697 1.95928 13.8048 1.95928C13.8048 2.19943 13.9123 2.43768 13.9359 2.70111C14.0173 2.70111 14.1323 3.14114 14.1323 3.20319C14.1692 3.20319 14.176 3.63956 14.2633 3.63956C14.2633 3.78193 14.3094 3.86283 14.2915 4.00785C14.2738 4.14894 14.1979 4.285 14.1979 4.4252C14.1749 4.4252 14.1105 4.56432 14.1105 4.59973C14.0046 4.67994 13.9309 4.78254 13.833 4.87114C13.7315 4.9631 13.194 5.04872 13.194 5.12371C13.0037 5.12371 12.852 5.21666 12.6342 5.1987C12.5314 5.19001 12.4205 5.17501 12.3244 5.13576C12.2386 5.10103 12.2166 5.00581 12.1466 4.97078C12.1466 4.86669 11.9939 4.83366 11.9939 4.73056C11.9218 4.69543 11.8629 4.53896 11.8629 4.4691C11.7772 4.4691 11.7659 4.09173 11.6446 4.03243C11.6446 4.00293 11.4798 3.63956 11.4482 3.63956C11.4482 3.49928 11.2128 3.3049 11.1101 3.18139C11.028 3.08292 10.8842 3.10168 10.8374 3.00697C10.6963 2.97883 10.5926 2.92645 10.5098 3.05036C10.4359 3.05036 10.3568 3.13343 10.2808 3.14844C10.1593 3.17271 10.0898 3.27947 9.97509 3.3123C9.93781 3.32316 9.7679 3.41442 9.7679 3.42134C9.69095 3.42134 9.62465 3.4763 9.52776 3.50855C9.52776 3.56785 9.29532 3.61026 9.24423 3.66156C9.15512 3.75036 9.02479 3.79724 8.91687 3.8578C8.84337 3.8578 8.71964 3.9679 8.67683 4.03243C8.54759 4.0643 8.47606 4.16326 8.34957 4.16326C8.34957 4.1815 8.18689 4.25058 8.15325 4.25058C8.0751 4.3364 7.90924 4.45331 7.86939 4.53421C7.6103 4.62054 7.37975 4.8526 7.21457 5.05809C7.07152 5.09363 6.97493 5.21537 6.86997 5.32862C6.75947 5.44781 6.65134 5.52032 6.53837 5.64711C6.463 5.73195 6.35861 5.88733 6.25463 5.88733C6.17815 5.97881 5.90538 6.17089 5.90538 6.28C5.81677 6.34908 5.66533 6.43687 5.66533 6.54194C5.59598 6.60362 5.44532 6.80391 5.35987 6.80391C5.335 6.85422 5.29456 6.83368 5.29456 6.8695C5.21475 6.92229 5.2399 6.98336 5.16345 7.02213C5.16345 7.14081 5.03449 7.16498 4.97796 7.24047C4.90022 7.34357 4.68347 7.46806 4.68347 7.58942C4.65505 7.58942 4.60967 7.72657 4.57415 7.75302C4.4898 7.81616 4.40673 7.95181 4.37801 8.06971C4.2816 8.14172 4.16994 8.37507 4.05065 8.37507Z" fill="#3F5471"/>
<path fill-rule="evenodd" clip-rule="evenodd" d="M35.4528 6.65139C35.4276 6.74393 35.3167 6.84948 35.2343 6.89143C35.1838 7.04287 35.1409 7.11261 35.1252 7.28408C35.0434 7.56478 34.9489 7.83698 35.2126 8.04792C35.2126 8.09457 35.3851 8.16009 35.4382 8.16413C35.5943 8.17646 35.6844 8.20063 35.8456 8.20063C35.8456 8.2322 36.6528 8.2102 36.6528 8.15693C36.6917 8.15693 36.871 8.11728 36.871 8.09162C37.0241 8.06942 37.1178 8.04792 37.2857 8.04792C37.3332 8.04792 37.8093 8.00777 37.8093 7.96061C37.9863 7.93967 38.5948 7.82937 38.6822 7.80798C38.7673 7.63916 39.1204 7.61133 39.3078 7.61133C39.524 7.61133 39.7379 7.54948 39.9582 7.5546C40.1049 7.55837 40.4062 7.63601 40.4062 7.80798C40.4812 7.85779 40.5517 7.96061 40.5807 8.04792C40.6194 8.16365 40.6921 8.22876 40.7335 8.35356C40.756 8.35356 40.9331 8.76548 40.9409 8.81185C40.9748 9.0141 41.0791 9.06826 41.0972 9.30613C41.1073 9.43784 41.1526 9.50689 41.17 9.66278C41.1768 9.66278 41.2639 10.1215 41.2791 10.1864C41.34 10.1864 41.4642 10.7426 41.4668 10.851C41.4711 11.0376 41.2905 11.1902 41.1483 11.1902C41.0664 11.3129 40.9225 11.3168 40.7772 11.343C40.7772 11.366 40.6343 11.4327 40.5916 11.4411C40.4678 11.4658 40.3193 11.4865 40.1663 11.4959C40.0046 11.5437 39.8273 11.6049 39.6589 11.6049C39.3722 11.6049 39.1269 11.6705 38.8678 11.6705C38.7552 11.6705 38.6079 11.6715 38.464 11.6569C38.3276 11.6437 38.2018 11.6922 38.0275 11.6922C37.9313 11.6922 37.1546 11.729 37.1546 11.7578C36.849 11.7795 36.7088 11.8669 36.4348 11.8669C36.4348 11.9043 35.9908 11.9838 35.9107 11.9904C35.7918 12 35.6677 12.0415 35.5508 12.0415C35.397 12.0415 35.2275 12.0363 35.0742 12.0523C34.9828 12.0617 34.9194 12.1066 34.8196 12.1066C34.6903 12.1066 34.609 12.1505 34.5143 12.1505C34.5143 12.2161 34.3178 12.1831 34.3178 12.2595C34.2372 12.2595 34.1394 12.3273 34.0778 12.3904C34.0778 12.4618 33.9432 12.6112 33.8813 12.6524C33.8005 12.7446 33.8376 12.847 33.8091 12.9531C33.7326 13.2402 33.8252 13.3413 33.9904 13.547C34.0692 13.547 34.147 13.6561 34.2304 13.6561C34.2304 13.6743 34.3933 13.7434 34.4269 13.7434C34.4269 13.8149 34.7974 13.918 34.907 13.94C34.907 13.9895 35.518 13.9922 35.518 14.0926C35.6306 14.0926 35.7044 14.1362 35.8456 14.1362C35.8456 14.2599 36.2042 14.1316 36.26 14.1143C36.483 14.102 36.6912 14.0489 36.871 14.0489C36.871 13.9971 37.1885 13.9481 37.2637 13.94C37.2637 13.8611 37.5779 13.7404 37.6348 13.6561C37.708 13.6561 37.7573 13.5904 37.8421 13.5904C37.9482 13.5904 38.0227 13.5682 38.1076 13.5762C38.2364 13.588 38.2543 13.6023 38.3513 13.6738C38.3915 13.7034 38.5076 13.8151 38.5076 13.8307C38.5998 13.9133 38.8665 14.341 38.9332 14.398C39.0224 14.4741 39.2982 14.9648 39.3151 15.1838C39.3078 15.1838 39.4103 15.6514 39.4139 15.7195C39.4161 15.7666 39.3848 15.9254 39.3588 15.9254C39.3588 16.0261 39.3368 16.1472 39.3368 16.275C39.3007 16.275 39.2717 16.6899 39.2717 16.7547C39.2287 16.7547 39.1626 17.1891 39.1626 17.2567C39.054 17.3104 39.1171 17.4426 39.0098 17.4966C39.0098 17.7482 38.4374 18.1101 38.4374 18.0109C38.7228 18.0109 36.871 18.5636 36.871 18.4571C36.7528 18.4939 36.6313 18.4263 36.5219 18.3918C36.3737 18.377 36.2843 18.3459 36.1436 18.3332C35.9549 18.3163 35.7286 18.1732 35.5399 18.1732C35.5399 18.1648 35.1477 18.0573 35.1035 18.0425C34.9277 17.9838 34.7663 17.8898 34.5797 17.8898C34.5797 17.8281 34.4052 17.8654 34.4052 17.8023C34.2622 17.7788 34.149 17.7393 33.9904 17.7151C33.9904 17.5882 33.4232 17.6641 33.4232 17.5186C33.3729 17.5186 32.987 17.3713 32.987 17.3223C32.8875 17.2971 32.7801 17.2308 32.7248 17.1473C32.6101 17.1473 32.5561 16.973 32.4412 16.973C32.4169 16.9252 32.252 16.8204 32.2012 16.8204C32.1631 16.7638 32.0257 16.646 31.961 16.646C31.8918 16.5628 31.8519 16.5389 31.8519 16.4274C31.839 16.4274 31.807 16.3465 31.7645 16.3184C31.7645 16.31 31.5731 16.2416 31.5466 16.1874C31.4915 16.1418 31.4157 16.1107 31.4157 16.0347C31.3453 15.9992 31.3988 15.9822 31.3283 15.9474C31.3283 15.8271 31.1318 15.7817 31.1318 15.6635C31.0768 15.6367 31.0452 15.5579 31.0336 15.5C31.0096 15.3799 31.001 15.5212 31.001 15.3581C30.9962 15.3581 30.9353 15.2356 30.9353 15.2055C30.8323 15.1519 30.7924 14.7911 30.7391 14.7911C30.7391 14.62 30.608 14.435 30.608 14.2673C30.5254 14.2673 30.6045 13.438 30.4989 13.438C30.4989 13.3186 30.4555 13.2799 30.4555 13.1324C30.4148 13.1324 30.4335 12.6626 30.4335 12.5925C30.4335 12.5069 30.5325 11.9976 30.4989 11.9976C30.4989 11.8451 30.5209 11.6712 30.5209 11.5504C30.5209 11.4591 30.5865 11.4027 30.5865 11.2996C30.5865 10.8656 30.7863 10.5609 30.8626 10.1793C30.9058 9.9642 31.0447 9.82261 31.0447 9.59716C31.0955 9.57173 31.1538 9.45509 31.1538 9.40084C31.1743 9.40084 31.241 9.27306 31.241 9.22611C31.2841 9.20469 31.3187 9.07348 31.3501 9.07348C31.3501 9.0357 31.4455 8.83354 31.4811 8.83354C31.5382 8.6081 31.661 8.47393 31.6991 8.24435C31.7602 8.24435 31.7549 7.74226 31.8299 7.74226C31.9093 7.47944 31.7319 7.20535 31.5466 7.06596C31.5466 7.0335 31.5087 6.93502 31.4811 6.93502C31.4811 6.80707 31.368 6.83885 31.3281 6.73996C31.2869 6.63727 31.1318 6.54415 31.1318 6.45484C31.0836 6.45484 31.1099 6.31673 31.1099 6.28021C31.02 6.2082 30.9732 6.14693 30.9136 6.04739C30.7985 5.85559 30.8265 5.47436 30.8265 5.28375C30.8265 5.05684 30.7873 4.8373 30.8336 4.58079C30.8588 4.44021 30.8699 4.28284 30.8699 4.16347C30.8785 4.16347 31.001 3.91749 31.001 3.87981C31.0935 3.81836 31.1743 3.57445 31.3064 3.57445C31.3339 3.5197 31.4066 3.47848 31.4592 3.44324C31.4592 3.37172 31.5466 3.33444 31.5961 3.2841C31.7289 3.14973 31.8673 3.02739 32.0484 2.96326C32.2288 2.89964 32.4341 2.94404 32.6207 2.93464C32.9041 2.92085 33.0584 2.72145 33.314 2.63621C33.582 2.54642 33.7053 2.46226 34.0561 2.41768C34.0561 2.38215 34.2821 2.33027 34.3324 2.33027C34.5049 2.33027 34.5514 2.33332 34.7436 2.34674C34.8676 2.35573 34.9325 2.29089 35.0452 2.27945C35.2033 2.26367 36.5737 1.9377 36.6091 1.9377C36.6091 1.85059 37.1885 1.77363 37.2857 1.74135C37.4032 1.7021 37.4112 1.67576 37.5693 1.67576C37.6752 1.67576 37.7608 1.63224 37.8641 1.63224C38.029 1.63224 38.3783 1.49737 38.4205 1.49017C38.5284 1.47252 38.5607 1.43402 38.7041 1.42703C38.8868 1.41796 38.9845 1.38785 39.155 1.3484C39.1929 1.33982 39.4242 1.27076 39.4242 1.26109C39.6657 1.26109 39.8501 1.19577 40.0791 1.19577C40.0791 1.23179 40.779 1.15147 40.8871 1.14003C40.9659 1.13165 41.519 1.08527 41.519 1.19577C41.6537 1.22931 41.6867 1.33636 41.8246 1.3704C41.9123 1.47941 41.983 1.60719 42.0863 1.67576C42.1133 1.78348 42.2161 1.92259 42.3048 1.98129C42.3048 2.01711 42.4018 2.17792 42.4356 2.17792C42.447 2.22381 42.518 2.37416 42.5447 2.37416C42.574 2.51386 42.6538 2.71948 42.6538 2.83253C42.7518 2.83253 42.8135 3.2252 42.894 3.2252C42.9238 3.35148 43.0031 3.53894 43.0031 3.63977C43.0329 3.63977 43.1254 3.84528 43.1342 3.87981C43.2332 3.93063 43.2168 4.07813 43.2105 4.17451C43.2034 4.2794 43.2246 4.32034 43.1342 4.382C43.0984 4.48727 43.0468 4.42541 43.0468 4.54182C43.0468 4.71902 43.0021 4.75315 42.8501 4.85084C42.7357 4.92462 42.6018 4.99261 42.501 4.99261C42.501 5.05653 42.1368 5.09058 42.0537 5.09649C41.9095 5.10664 41.8221 5.18934 41.661 5.18934C41.5837 5.18934 41.0172 5.28819 41.0172 5.29824C40.8717 5.29824 40.7368 5.40758 40.5663 5.40758C40.4044 5.40758 40.3034 5.47287 40.1771 5.47287C39.987 5.47287 39.7639 5.53829 39.577 5.53829C39.3919 5.53829 39.2931 5.6039 39.1259 5.6039C38.9287 5.6039 38.8471 5.69122 38.6824 5.69122C38.5554 5.69122 38.4677 5.77853 38.3548 5.77853C38.3548 5.89171 37.949 5.89969 37.8489 5.90512C37.7797 5.90876 37.4168 5.97427 37.4168 6.01827C37.2486 6.01827 37.1834 6.10579 37.0238 6.10579C37.0238 6.17416 36.7839 6.15531 36.7839 6.21482C36.7331 6.21846 36.4782 6.2151 36.4782 6.25841C36.4111 6.25841 36.38 6.30213 36.3037 6.30213C36.3037 6.37068 35.9569 6.38303 35.8673 6.38925C35.8673 6.41311 35.5256 6.63048 35.4528 6.65139Z" fill="#3F5471"/>
<path fill-rule="evenodd" clip-rule="evenodd" d="M45.7527 12.4993C45.7095 12.6567 45.5537 12.6826 45.4971 12.8124C45.4339 12.9569 45.4228 13.1503 45.4456 13.3044C45.4708 13.4773 45.6125 13.5262 45.6873 13.6778C45.7608 13.7023 46.08 13.8148 46.08 13.8525C46.1358 13.8525 46.4945 13.9107 46.4945 13.9615C46.6314 13.9615 46.818 14.0488 46.9312 14.0488C46.9312 14.1788 48.2405 14.1726 48.2405 14.0925C48.267 14.091 48.4049 14.1221 48.4585 14.125C48.4941 14.1267 48.655 14.163 48.655 14.1142C48.7823 14.1142 48.6658 14.0925 48.7641 14.0925C48.7641 13.9925 49.1998 13.9835 49.2877 13.9835C49.2877 13.8932 49.6279 13.9361 49.6807 13.8305C49.7539 13.8305 49.8749 13.6957 49.9206 13.6342C50.0236 13.6342 50.0567 13.4813 50.1608 13.4813C50.1863 13.431 50.331 13.3506 50.3788 13.3506C50.3788 13.3484 50.5808 13.2827 50.623 13.2751C50.8549 13.2331 50.8988 13.4364 51.0991 13.5032C51.0991 13.5548 51.1458 13.6441 51.1835 13.7005C51.2433 13.7911 51.3317 13.8483 51.408 13.9238C51.4694 13.9846 51.4701 14.003 51.4701 14.0925C51.4701 14.2138 51.5221 14.1834 51.5573 14.2888C51.5881 14.3811 51.6727 14.4595 51.6785 14.5384C51.6846 14.6177 51.8629 14.8167 51.8629 14.9434C52.0035 15.014 52.0374 15.6806 52.0374 15.8166C52.0685 16.0001 52.0018 16.1239 51.9828 16.2748C51.9654 16.4144 51.9379 16.5669 51.9283 16.7329C51.9151 16.7329 51.8563 16.9186 51.8482 16.9585C51.8139 17.1317 51.724 17.3892 51.5355 17.4533C51.4598 17.6763 51.2481 17.7421 51.0248 17.789C50.9597 17.8028 50.5535 17.9121 50.5535 17.9767C50.4361 18.0058 50.3487 18.0586 50.2055 18.0657C50.0524 18.0739 48.9469 18.2352 48.8189 18.2495C48.662 18.2668 47.9955 18.4293 47.9132 18.3257C47.8397 18.3257 47.8773 18.2823 47.8041 18.2823C47.8041 18.2401 47.5869 18.2742 47.5422 18.2769C47.4227 18.2843 47.3823 18.3107 47.2456 18.25C47.1262 18.1974 47.088 18.1948 46.9653 18.2338C46.8367 18.2747 46.5253 18.1698 46.4728 18.064C46.4005 18.064 46.3462 18.0167 46.2399 18.0058C46.1358 17.9958 46.03 17.9612 45.9272 17.9442C45.8916 17.9382 45.7092 17.8457 45.7092 17.8238C45.6304 17.8194 45.2508 17.8174 45.2508 17.7584C45.1619 17.7459 44.7707 17.6605 44.7707 17.6058C44.655 17.5789 44.4696 17.5712 44.4214 17.4751C44.3277 17.4751 44.2496 17.2881 44.1378 17.2565C44.112 17.1499 44.0289 17.148 44.0289 17.0385C44.0026 17.0385 43.9632 16.9004 43.9632 16.864C43.9544 16.864 43.8109 16.683 43.767 16.6458C43.767 16.5503 43.6796 16.485 43.6796 16.3839C43.5753 16.3839 43.5005 15.9473 43.4177 15.9473C43.3947 15.8557 43.3265 15.747 43.2649 15.6853C43.1987 15.6189 42.9812 15.5716 42.9812 15.4453C42.932 15.4081 42.8941 15.4009 42.8941 15.3364C42.8082 15.2791 42.862 15.2439 42.7847 15.2054C42.7847 15.1681 42.6996 15.0307 42.6756 15.0307C42.6756 14.9559 42.5397 14.4634 42.5011 14.4634C42.5011 14.4005 42.4215 13.7868 42.4137 13.7868C42.3622 13.6179 42.3627 13.3747 42.3872 13.2008C42.421 12.9605 42.4584 12.7413 42.4685 12.4776C42.4832 12.0911 42.6438 11.7493 42.6756 11.3647C42.6845 11.2597 42.7332 10.8411 42.8067 10.8411C42.8067 10.7528 42.8711 10.2736 42.9375 10.2736C42.9375 10.1841 42.9595 10.0452 42.9595 9.92457C42.9815 9.92457 43.0249 9.74404 43.0249 9.70605C43.0492 9.70605 43.1343 9.22213 43.1343 9.15355C43.1343 9.06447 43.1747 8.50604 43.2429 8.50604C43.2636 8.42524 43.3924 7.98246 43.4177 7.98246C43.4177 7.7945 43.5922 7.60982 43.6579 7.41486C43.6942 7.41486 43.7384 7.16653 43.8107 7.13122C43.8107 7.04025 43.8806 6.9711 43.8981 6.86956C43.9493 6.86956 43.991 6.65892 44.0506 6.62932C44.0506 6.55089 44.1499 6.44009 44.1815 6.34568C44.2115 6.34568 44.356 5.90861 44.356 5.86539C44.3716 5.86539 44.4868 5.57711 44.4868 5.53814C44.5315 5.53814 44.6836 4.98466 44.6836 4.92705C44.7108 4.92705 44.7424 4.21215 44.7394 4.12286C44.7343 3.96599 44.7343 3.82049 44.7598 3.6942C44.7745 3.62068 44.8141 3.64359 44.8141 3.57431C44.8816 3.52056 44.8975 3.46924 44.9455 3.4214C45.0157 3.35076 45.1132 3.32027 45.1854 3.23591C45.2622 3.14633 45.3637 3.08536 45.4688 3.05043C45.6246 2.99862 46.2326 2.72534 46.2326 2.70117C46.374 2.70117 46.2154 2.67948 46.3856 2.67948C46.3856 2.61237 46.4627 2.68392 46.4945 2.67948C46.4945 2.63517 46.7127 2.64583 46.7127 2.57044C46.7673 2.57044 47.0403 2.52407 47.0403 2.48313C47.2732 2.48313 47.529 2.41211 47.7712 2.38498C47.9162 2.36869 47.966 2.33121 48.1311 2.34502C48.2637 2.35586 48.385 2.29421 48.5459 2.26481C48.5459 2.20038 49.1351 2.25228 49.1351 2.1556C49.2311 2.1556 49.7678 2.12746 49.7678 2.04656C49.9949 2.0141 50.2469 1.98885 50.4662 1.91583C50.5056 1.90252 50.619 1.85289 50.619 1.82852C50.6861 1.82013 50.9463 1.78513 50.9463 1.7412C51.0387 1.7412 51.601 1.77328 51.601 1.65389C51.7017 1.65389 51.7479 1.6102 51.8846 1.6102C51.8846 1.60209 52.1346 1.54488 52.1682 1.54488C52.2789 1.54488 52.3478 1.50098 52.4847 1.50098C52.6466 1.50098 52.7921 1.46989 52.9497 1.43211C53.059 1.40627 53.9579 1.44198 53.9579 1.47926C54.139 1.47926 54.2772 1.6102 54.4818 1.6102C54.4818 1.66346 54.5252 1.60052 54.5252 1.65389C54.6237 1.65389 54.6664 1.71703 54.7401 1.77871C54.8101 1.83662 55.0968 2.13387 55.1364 2.13387C55.1991 2.39079 55.2928 2.67473 55.5289 2.83238C55.5289 2.88075 55.6017 2.99223 55.638 3.02873C55.6777 3.06838 55.6863 3.12908 55.7034 3.18166C55.7464 3.20237 55.7911 3.26473 55.7911 3.31237C55.8078 3.31237 55.9891 3.67496 55.9967 3.71736C56.0469 3.99855 55.8951 4.74393 55.7252 4.88353C55.6491 4.92793 55.5777 4.96642 55.487 4.97529C55.2051 5.00282 54.9942 5.06477 54.6778 5.02532C54.5381 5.00784 53.5601 5.21109 53.4887 5.21109C53.3932 5.21109 53.2699 5.2545 53.1722 5.2545C53.1722 5.27837 53.029 5.32012 52.9977 5.32012C52.9977 5.37488 52.7335 5.36371 52.6703 5.36371C52.6703 5.32691 52.4572 5.40743 52.3976 5.40743C51.8588 5.40743 51.3645 5.51634 50.8372 5.51634C50.5543 5.51634 49.4624 5.67379 49.4624 5.71277C49.4122 5.71277 49.2222 5.78134 49.2222 5.822C49.1313 5.822 49.0816 5.87181 48.9677 5.89479C48.8676 5.91472 48.8121 6.04032 48.7204 6.04032C48.6898 6.1018 48.5396 6.19295 48.4804 6.19295C48.4486 6.25531 48.4029 6.24554 48.3605 6.30199C48.3082 6.37124 48.2372 6.4113 48.1748 6.49821C48.1023 6.55681 48.0294 6.61472 47.9566 6.67294C47.9261 6.76894 47.8955 6.86512 47.8649 6.96082C47.8238 7.09155 47.7662 7.27211 47.6513 7.34955C47.6513 7.40183 47.5442 7.5443 47.4985 7.57845C47.3563 7.68519 47.3893 7.83663 47.3893 7.96046C47.5227 8.02656 47.5442 8.14524 47.7121 8.1631C47.8574 8.17878 47.9341 8.13509 48.0657 8.13509C48.0657 8.09147 48.7204 8.10766 48.7204 8.02585C48.8502 8.02585 49.8552 7.86742 49.8552 7.80783C50.0494 7.80783 50.2343 7.72348 50.4225 7.6768C50.4225 7.61149 50.7935 7.56216 50.7935 7.50218C50.9334 7.48914 51.0685 7.50394 51.1428 7.39317C51.1903 7.39317 51.3411 7.30189 51.361 7.26223C51.4226 7.24152 51.754 7.16406 51.754 7.1093C51.822 7.1093 51.9407 7.02813 52.0424 7.01954C52.1392 7.01133 52.1869 7.06581 52.2773 7.06581C52.2773 7.07331 52.441 7.17492 52.4738 7.17492C52.5092 7.24645 52.5822 7.242 52.6559 7.26223C52.7681 7.29282 52.7072 7.28294 52.7903 7.34955C52.8615 7.40637 52.8696 7.46103 52.9429 7.52417C52.9921 7.5661 53.0848 7.65895 53.0848 7.72052C53.2121 7.80506 53.3687 8.12552 53.3687 8.2661C53.4788 8.2661 53.5508 8.70239 53.6086 8.70239C53.6086 8.76434 53.6531 8.86666 53.718 8.89881C53.718 8.92909 53.7945 9.09534 53.8051 9.09534C53.8051 9.20041 53.8486 9.30007 53.8486 9.40069C53.8486 9.51859 53.8486 9.61222 53.8486 9.74995C53.7518 9.74995 53.8905 10.4263 53.8051 10.4263C53.8051 10.5338 53.7081 10.7575 53.5869 10.8191C53.5869 10.9669 53.2603 11.0592 53.1505 11.0592C53.1505 11.12 52.9757 11.0833 52.9757 11.1465C52.8312 11.1827 52.733 11.2338 52.5721 11.2447C52.3367 11.2604 52.2488 11.3913 52.0154 11.4301C52.0154 11.439 51.7616 11.4869 51.7101 11.4957C51.7101 11.5633 51.5138 11.5599 51.5138 11.6048C51.332 11.6194 50.8114 11.7138 50.772 11.7138C50.772 11.7998 48.9755 11.9757 48.8949 11.9757C48.8949 12.0122 48.7211 12.0413 48.6769 12.0413C48.6769 12.0404 47.9351 12.1558 47.9351 12.063C47.896 12.063 47.874 12.1094 47.8079 12.1213C47.724 12.1357 47.6404 12.1503 47.5568 12.1648C47.3734 12.1967 47.2037 12.1831 47.0183 12.1721C47.0183 12.2537 46.4508 12.2396 46.4508 12.325C46.3437 12.325 46.2745 12.3684 46.1674 12.3684C46.08 12.3684 45.9926 12.3684 45.9052 12.3684C45.9052 12.4202 45.7992 12.4863 45.7527 12.4993Z" fill="#3F5471"/>
<path fill-rule="evenodd" clip-rule="evenodd" d="M78.8778 6.08372C78.8778 6.11342 78.6909 6.23675 78.6599 6.23675C78.624 6.31025 78.4558 6.39115 78.376 6.41097C78.3543 6.45477 78.2507 6.52039 78.2014 6.52039C78.1706 6.58146 78.0916 6.6077 78.0269 6.6077C78.0269 6.63829 77.8082 6.72767 77.765 6.73843C77.6748 6.87558 77.4887 6.92293 77.3286 6.97325C77.151 7.02848 76.9929 7.10938 76.805 7.10938C76.805 7.1829 76.4956 7.17707 76.4383 7.17795C76.2849 7.17944 76.1688 7.17846 76.0412 7.08768C75.9985 7.02424 75.9761 7.03806 75.9761 6.97868C75.8902 6.92094 75.9437 6.88661 75.8669 6.84764C75.8523 6.76753 75.8144 6.41097 75.7573 6.41097C75.7573 6.33245 75.6768 5.84357 75.6267 5.84357C75.6267 5.79149 75.6111 5.53822 75.5828 5.53822C75.5884 5.44007 75.5942 5.34179 75.5995 5.24372C75.605 5.14113 75.5606 5.09455 75.5626 4.97872C75.5656 4.81258 75.5752 4.62404 75.7662 4.58961C75.9339 4.55903 76.0887 4.55625 76.2594 4.55625C76.3877 4.53435 76.4335 4.55625 76.5648 4.55625C76.5648 4.60825 76.805 4.59158 76.805 4.64356C76.9674 4.64356 77.0659 4.66559 77.2195 4.66559C77.3212 4.66559 77.4071 4.70898 77.5033 4.70898C77.6296 4.70898 77.8057 4.74401 77.9615 4.7527C77.9615 4.75406 78.179 4.82433 78.2126 4.82905C78.3755 4.85244 78.4949 4.94922 78.6384 4.94922C78.6384 5.05823 79.0837 5.0476 79.1786 5.19538C79.2191 5.25804 79.3021 5.58194 79.1834 5.58194C79.1178 5.78094 79.0622 5.93286 78.8778 6.08372ZM96.1172 2.74515C96.2461 2.74515 96.3787 3.79243 96.3137 3.79243C96.3137 3.8319 96.3201 4.23985 96.3107 4.38193C96.3009 4.5317 96.268 4.69173 96.1829 4.81801C96.139 4.85343 95.921 5.02174 95.921 5.01444C95.8687 5.01444 95.5502 5.19687 95.5502 5.21116C95.352 5.21116 95.1582 5.34179 94.9393 5.34179C94.9393 5.34978 94.3465 5.4085 94.2712 5.43365C93.9277 5.5483 93.5751 5.59111 93.2367 5.62553C93.2367 5.7106 92.6911 5.65781 92.6911 5.73477C92.4669 5.73477 92.2555 5.86034 91.9822 5.87654C91.8867 5.88207 91.4038 5.95556 91.4038 6.0182C91.2677 6.02757 91.1199 6.06212 91.011 6.06212C91.011 6.10847 90.7719 6.13365 90.7057 6.13858C90.4518 6.15633 90.3329 6.23625 90.051 6.28014C90.051 6.32209 89.5931 6.41097 89.5272 6.41097C89.5272 6.50905 88.891 6.55709 88.77 6.57307C88.6632 6.58747 88.5808 6.67301 88.4795 6.67301C88.4795 6.72312 88.1961 6.73843 88.131 6.73843C88.131 6.77462 87.6284 6.83335 87.6284 6.91296C87.5852 6.91296 87.4104 6.94413 87.4104 6.97868C87.322 6.97868 87.2841 7.08768 87.1924 7.08768C87.1417 7.19048 86.9957 7.2416 86.9957 7.34962C86.9207 7.39946 86.8505 7.50256 86.8212 7.58957C86.8073 7.63101 86.7312 7.76399 86.7123 7.76399C86.681 7.85822 86.6507 7.83307 86.6252 7.93862C86.582 7.96024 86.5158 8.04025 86.5158 8.09155C86.4539 8.13259 86.3193 8.28196 86.3193 8.35349C86.2579 8.38408 86.212 8.59323 86.1885 8.59323C86.1958 8.67335 86.2031 8.75356 86.2104 8.83348C86.2761 8.85517 86.3413 8.87709 86.4064 8.89889C86.4822 8.9933 86.5686 9.07342 86.6684 9.07342C86.6684 9.17288 87.2967 9.07223 87.396 9.0742C87.7332 9.08062 88.0449 9.0524 88.3729 8.97969C88.5354 8.94367 88.6839 8.94251 88.8511 8.94251C88.8511 8.88775 89.115 8.89889 89.1781 8.89889C89.1781 8.87197 89.8545 8.85962 89.8545 8.76786C89.9232 8.7575 90.2036 8.73245 90.2036 8.68054C90.3278 8.64938 90.4473 8.57153 90.5749 8.57153C90.5749 8.55704 90.9487 8.37471 91.0222 8.36435C91.0992 8.35319 91.2169 8.31255 91.2515 8.24428C91.2914 8.24428 91.3955 8.18725 91.4255 8.15717C91.4796 8.1036 91.5849 8.04667 91.6657 8.02593C91.7107 7.95855 91.9276 7.87747 91.9276 7.82961C92.1332 7.82961 92.281 7.90657 92.4689 7.98668C92.5694 8.0299 92.7785 8.16111 92.7785 8.2879C92.8477 8.2879 92.8626 8.54974 92.9313 8.54974C92.9995 8.75356 93.0831 8.9198 93.1281 9.09542C93.1564 9.09542 93.2809 9.49134 93.2912 9.5537C93.2993 9.60008 93.4529 9.98997 93.4554 9.98997C93.4554 10.0658 93.5458 10.8412 93.4554 10.8412C93.4554 10.9058 93.3731 11.1466 93.3241 11.1466C93.3241 11.1804 93.2554 11.3429 93.2367 11.3429C93.2367 11.4406 93.1806 11.5348 93.1061 11.6339C93.0566 11.6991 92.7568 11.8288 92.7568 11.8668C92.7293 11.8668 92.5608 11.9593 92.5608 11.9758C92.4575 11.9758 92.3911 12.0414 92.2878 12.0414C92.2532 12.0414 92.0148 12.0967 92.0148 12.1284C91.8526 12.1284 91.7081 12.1507 91.5475 12.1692C91.1833 12.2111 90.147 12.4027 89.9699 12.3966C89.7772 12.3902 86.3519 12.9141 86.0847 12.9141C85.7841 12.9141 85.6215 12.9816 85.2984 12.9969C85.0971 13.0065 84.9708 13.1237 84.7923 13.1834C84.7165 13.2086 84.6329 13.211 84.5953 13.285C84.5185 13.285 84.5417 13.3506 84.4647 13.3506C84.3942 13.4325 84.3215 13.5465 84.2465 13.6126C84.2316 13.7438 84.2465 13.835 84.2465 13.9615C84.2899 13.9615 84.4104 14.2159 84.4647 14.2563C84.5248 14.3012 84.616 14.3964 84.6607 14.4635C84.7551 14.4635 84.8913 14.5584 84.9446 14.6381C85.0087 14.6381 85.1471 14.7562 85.1845 14.8128C85.2792 14.8128 85.3014 14.9001 85.4027 14.9001C85.4027 14.9509 85.9553 15.0081 86.0589 15.014C86.3905 15.0333 86.7305 14.9736 87.0464 14.8751C87.1033 14.8572 87.4104 14.833 87.4104 14.7911C87.4546 14.7799 87.6506 14.722 87.6506 14.6816C87.786 14.649 87.8039 14.5945 87.956 14.5725C87.956 14.5173 88.1522 14.5405 88.1522 14.4854C88.1924 14.4854 88.349 14.4499 88.349 14.4198C88.5053 14.4025 88.5641 14.4088 88.6543 14.2889C88.7922 14.2889 88.9215 14.1362 89.0688 14.1362C89.0688 14.1271 89.43 13.9835 89.4835 13.9835C89.4835 13.95 90.0129 13.8666 90.0945 13.8597C90.2607 13.8459 90.3968 14.0373 90.52 14.1362C90.5935 14.1949 90.6256 14.315 90.7057 14.3545C90.7221 14.4201 90.7918 14.6816 90.8363 14.6816C90.882 14.8858 90.9896 14.9955 90.9896 15.162C91.0843 15.162 91.0547 15.9686 91.0547 16.1C91.1297 16.1 91.0547 16.7176 91.0547 16.7546C91.0242 16.7546 91.004 17.1693 90.9823 17.2349C90.9421 17.3545 90.8721 17.556 90.7708 17.6058C90.7708 17.7235 90.5016 17.8947 90.422 17.9876C90.3751 18.0416 90.2455 18.1297 90.1819 18.1297C90.1819 18.147 90.0573 18.195 90.029 18.195C89.9897 18.2758 89.8098 18.3483 89.7234 18.3695C89.6669 18.4824 89.3655 18.5658 89.2655 18.5658C89.2655 18.6364 88.848 18.6773 88.7851 18.806C88.6839 18.806 88.4848 18.917 88.3631 18.959C88.1762 19.0236 88.0219 19.0246 87.8251 19.0246C87.8251 19.0818 87.6506 19.0236 87.6506 19.0899C87.517 19.1308 86.876 19.0478 86.7557 19.0425C86.58 19.0351 86.4037 19.0305 86.2274 19.0223C86.0665 19.0149 85.9114 18.959 85.752 18.959C85.6929 18.959 85.3813 18.9669 85.3813 18.9153C85.2029 18.9153 85.0342 18.8189 84.8685 18.7952C84.7741 18.7819 84.3114 18.7268 84.3114 18.6536C84.2356 18.6536 84.1735 18.6048 84.0714 18.588C84.0714 18.5709 83.903 18.479 83.8754 18.479C83.8312 18.3897 83.5481 18.3715 83.5481 18.3042C83.5105 18.3042 83.3082 18.187 83.3082 18.1731C83.2008 18.147 83.0867 18.0918 83.0243 17.999C82.9147 17.999 82.8747 17.8239 82.7624 17.8239C82.677 17.7215 82.5065 17.6419 82.457 17.5402C82.2481 17.5402 82.1544 17.1856 82.0274 17.0751C81.9258 16.986 81.8801 16.8269 81.7804 16.7766C81.7804 16.711 81.7352 16.7058 81.7149 16.6239C81.6351 16.5825 81.6867 16.5112 81.6061 16.4712C81.5826 16.3785 81.497 16.3248 81.497 16.231C81.473 16.231 81.3876 16.0736 81.3876 16.0347C81.2995 16.0347 81.2131 15.3714 81.2131 15.2819C81.2131 15.1038 81.1449 14.8527 81.109 14.6273C81.086 14.4813 81.0719 14.3256 81.1037 14.1796C81.0777 13.9737 81.0694 13.7635 81.108 13.5578C81.1383 13.3975 81.1257 13.2303 81.1257 13.067C81.154 13.067 81.1691 12.8134 81.1691 12.7613C81.2063 12.7613 81.2846 12.2817 81.2896 12.2049C81.3023 11.9857 81.4311 11.7979 81.4311 11.6049C81.4162 11.6049 81.6061 11.0716 81.6061 11.0376C81.692 11.0376 81.7023 10.601 81.7589 10.601C81.7589 10.5605 81.7978 10.3609 81.8243 10.3609C81.8243 10.2649 81.8294 10.119 81.9114 10.0773C81.9324 9.97418 81.9769 9.94834 81.9769 9.85906C81.995 9.85906 82.0643 9.69625 82.0643 9.66271C82.1476 9.66271 82.1888 9.27004 82.2602 9.27004C82.2936 9.06897 82.3537 8.96865 82.4136 8.78978C82.4378 8.71509 82.5007 8.64374 82.5007 8.57153C82.551 8.57153 82.5979 8.11868 82.6096 8.04786C82.5285 8.04786 82.4934 8.04212 82.457 8.17886C82.3547 8.20314 82.2832 8.2879 82.1951 8.2879C82.1951 8.30831 82.0203 8.37865 81.9769 8.38605C81.8705 8.4038 80.029 9.8632 79.9798 9.90265C79.8944 9.97103 79.8606 10.012 79.7512 10.012C79.7512 10.0638 79.4358 10.1644 79.3799 10.1644C79.3799 10.2261 79.1617 10.1876 79.1617 10.2517C79.0892 10.2591 79.0165 10.2665 78.9435 10.2736C78.9243 10.3119 78.8799 10.345 78.8402 10.3654C78.7811 10.3959 78.701 10.4742 78.6599 10.5356C78.6384 10.5356 78.4199 10.6347 78.4199 10.6449C78.3464 10.6449 77.9398 10.7431 77.9398 10.7973C77.8908 10.8044 77.6342 10.8476 77.6342 10.8846C77.5458 10.9068 77.4531 10.9719 77.3723 10.9719C77.3723 11.037 77.0449 11.076 77.0449 11.1466C76.7658 11.2164 76.4433 11.3163 76.1291 11.3547C76.0147 11.3691 76.0038 11.4095 75.9321 11.4958C75.8826 11.4958 75.9028 11.5752 75.8447 11.6049C75.8094 11.7464 75.7396 11.8152 75.7283 11.9613C75.7071 12.2358 75.6606 12.4515 75.6267 12.7177C75.5447 12.7177 75.5174 13.1249 75.5174 13.2194C75.4911 13.2194 75.4977 14.0706 75.408 14.0706C75.408 14.1569 75.3618 14.6381 75.2774 14.6381C75.2774 14.7304 75.2504 15.5547 75.2338 15.5547C75.2338 15.6387 75.1355 16.34 75.1901 16.34C75.2186 16.4425 75.1974 16.5724 75.1772 16.6745C75.1565 16.7776 75.1681 16.8452 75.1681 16.9878C75.1681 17.0326 75.037 17.9137 75.0428 18.0247C75.0491 18.1253 75.0155 18.1847 75.0155 18.2605C75.0006 18.2605 74.9405 18.3744 74.9062 18.4025C74.8299 18.4664 74.7407 18.5096 74.6882 18.588C74.617 18.588 74.543 18.675 74.4702 18.675C74.4702 18.7325 74.276 18.7404 74.23 18.7404C74.23 18.8023 73.5721 18.828 73.461 18.828C73.3433 18.828 73.2844 18.7816 73.1604 18.7404C73.1604 18.7168 73.0233 18.6311 72.9864 18.6311C72.9498 18.5604 72.8444 18.5336 72.7896 18.479C72.7257 18.415 72.6007 18.4277 72.5497 18.3258C72.4446 18.3258 72.0915 17.9758 72.0915 17.8678C72.0132 17.8288 72.0226 17.3355 71.917 17.3005C71.9021 17.1912 71.888 17.082 71.8731 16.9729C71.7945 16.9729 71.9112 16.0406 71.8953 15.9911C71.8425 15.8285 71.9604 15.2949 71.9604 15.1455C71.9604 15.0412 71.9142 14.9696 71.9243 14.871C71.9352 14.7577 71.9824 14.7102 71.9824 14.6273C71.9824 14.5198 71.9415 13.6343 72.0478 13.6343C72.0478 13.5269 72.0915 13.4676 72.0915 13.3286C72.1067 13.3286 72.1622 12.5424 72.135 12.4341C72.0908 12.4074 71.7859 12.2634 71.7859 12.2595C71.696 12.2595 71.6228 12.1284 71.524 12.1284C71.4556 12.0268 71.3303 11.9832 71.251 11.8885C71.1878 11.8125 71.0004 11.7316 71.0004 11.6265C70.9772 11.6265 70.8817 11.4342 70.8479 11.3868C70.7587 11.3868 70.6564 11.2503 70.6294 11.1683C70.5165 11.1117 70.4326 10.8671 70.4326 10.7536C70.4273 10.7536 70.3021 10.393 70.3021 10.3609C70.2715 10.3609 70.586 8.70393 70.586 8.63715C70.643 8.63715 70.6653 8.2879 70.7385 8.2879C70.7385 8.13151 71.059 7.94109 71.1967 7.89523C71.3272 7.85131 71.4007 7.84489 71.5616 7.86267C71.627 7.87007 71.8731 7.82635 71.8731 7.78592C71.986 7.78592 72.1082 7.72719 72.2224 7.6986C72.2815 7.62952 72.3292 7.56017 72.4077 7.51311C72.4835 7.46753 72.4345 7.44967 72.5057 7.41494C72.5449 7.29881 72.6204 7.16712 72.6717 7.0354C72.7351 6.87181 72.6808 6.64735 72.6868 6.47056C72.7005 6.0863 72.7224 5.70347 72.7462 5.3202C72.7558 5.3202 72.5643 5.08705 72.5497 5.05823C72.4886 5.04937 72.2661 5.01029 72.2661 4.97092C72.1458 4.97092 72.0865 4.94331 71.945 5.00004C71.8046 5.05626 71.6523 5.04343 71.502 5.04886C71.4376 5.05103 71.1535 5.04886 71.1535 5.10175C71.0512 5.10175 70.9997 5.16727 70.9022 5.16727C70.7527 5.16727 70.6001 5.36379 70.4326 5.36379C70.4326 5.39468 70.2576 5.49483 70.2147 5.49483C70.1455 5.59909 70.0551 5.62652 69.9308 5.64745C69.9308 5.72272 69.4519 5.76977 69.342 5.77846C69.342 5.84309 68.6995 5.71284 68.6546 5.71284C68.5053 5.71284 68.3338 5.58194 68.207 5.58194C68.0883 5.47164 67.9489 5.36735 67.8579 5.23286C67.6867 5.21826 67.6021 5.19606 67.492 5.28368C67.397 5.35914 67.3932 5.50665 67.3932 5.61568C67.3932 5.74363 67.3387 5.84011 67.3036 5.96001C67.227 6.21998 67.5157 6.31469 67.5046 6.54208C67.492 6.79713 67.5301 6.97984 67.5152 7.23736C67.5104 7.32338 67.5104 7.41868 67.4869 7.50225C67.443 7.65862 67.5091 7.82615 67.4652 7.98254C67.4733 8.31363 67.5195 8.66476 67.4533 8.98886C67.4276 9.11585 67.4652 9.18174 67.4652 9.31346C67.4652 9.494 67.472 9.66981 67.474 9.84939C67.4758 9.99224 67.4119 10.1453 67.3973 10.2894C67.3798 10.4579 67.3778 10.6281 67.3781 10.7973C67.3808 10.8585 67.4167 11.2339 67.3781 11.2339C67.3781 11.407 67.3344 11.5501 67.3344 11.703C67.3344 11.9146 67.2437 12.0431 67.2616 12.2743C67.2826 12.547 67.251 12.884 67.2179 13.2196C67.1881 13.5259 67.1447 13.7985 67.1651 14.0817C67.1727 14.1868 67.2194 14.6161 67.2904 14.6161C67.2904 14.8875 67.3344 15.2725 67.3344 15.5439C67.3344 15.6319 67.3781 15.7012 67.3781 15.7838C67.3781 15.9237 67.3786 16.122 67.3735 16.2954C67.371 16.3948 67.3116 17.1473 67.2687 17.1473C67.2687 17.2198 67.1876 17.6712 67.1379 17.6712C67.1379 17.7085 66.9881 18.0641 66.9851 18.0641C66.9851 18.1036 66.95 18.2605 66.9196 18.2605C66.9196 18.3576 66.7671 18.44 66.7671 18.5443C66.7365 18.57 66.4832 18.7426 66.4832 18.7187C66.3832 18.7187 66.3087 18.7903 66.1872 18.7908C66.1521 18.791 65.1484 18.7843 65.0537 18.7843C64.816 18.7843 64.6743 18.7301 64.4538 18.675C64.3604 18.5584 64.2957 18.4778 64.181 18.3805C64.0669 18.2838 63.9984 18.1371 63.8865 18.0533C63.8317 18.0123 63.7772 17.925 63.7772 17.8678C63.6999 17.8678 63.7289 17.5402 63.6463 17.5402C63.6463 17.4914 63.5279 17.1915 63.4935 17.1915C63.4829 17.1279 63.4458 16.8419 63.4061 16.8419C63.4061 16.6311 63.4061 16.4205 63.4061 16.2093C63.3468 16.2093 63.3321 15.7293 63.2753 15.7293C63.2753 15.6738 63.1728 15.2928 63.1228 15.2928C63.1046 15.238 63.0129 14.9654 62.9917 14.9654C62.9599 14.8409 62.8836 14.7704 62.8389 14.6381C62.7742 14.5952 62.6643 14.4714 62.6643 14.3979C62.5686 14.3501 62.5595 14.0488 62.4681 14.0488C62.4681 13.9423 62.3229 13.8859 62.2933 13.765C62.2006 13.6958 62.1872 13.5709 62.0971 13.5253C62.0971 13.4809 61.9637 13.284 61.9223 13.2633C61.9223 13.1423 61.8233 13.1287 61.748 13.0341C61.721 13.0004 61.5763 12.805 61.5735 12.805C61.5735 12.7725 61.5356 12.674 61.5076 12.674C61.5076 12.6072 61.4454 12.5022 61.3767 12.4449C61.2391 12.3302 61.2638 12.2151 61.1802 12.0794C61.1232 11.9867 61.0277 11.8663 61.0277 11.7795C60.981 11.7795 60.9875 11.5963 60.9186 11.5611C60.9186 11.4339 60.7004 11.3814 60.7004 11.2556C60.6064 11.208 60.4791 11.0226 60.395 10.9285C60.3309 10.9285 60.3293 10.8812 60.2733 10.8427C60.2003 10.7919 60.1649 10.7896 60.0737 10.8042C60.0366 10.8101 59.9583 10.816 59.9583 10.8629C59.8618 10.8629 59.8904 10.9285 59.8058 10.9285C59.8058 10.9872 59.7401 10.9672 59.7401 11.0376C59.6681 11.0744 59.6964 11.1372 59.6964 11.212C59.6964 11.2612 59.679 11.5831 59.631 11.5831C59.631 11.6756 59.4529 12.4341 59.4347 12.4341C59.4347 12.6418 59.2819 12.9259 59.2819 13.1543C59.2605 13.1543 59.1511 13.4332 59.1511 13.4814C59.0576 13.4814 59.1319 14.0488 59.0417 14.0488C59.0417 14.101 59.1026 14.5945 59.0637 14.5945C59.0637 14.942 58.9983 15.1171 58.9983 15.44C58.9983 15.6164 58.9983 15.7927 58.9983 15.9689C58.9983 16.1323 58.9187 16.2948 58.8672 16.4491C58.8609 16.5094 58.847 16.8641 58.8018 16.8641C58.8018 16.9647 58.7364 16.9986 58.7364 17.1042C58.7144 17.1042 58.6055 17.412 58.6055 17.4534C58.4166 17.5437 58.4232 17.8606 58.1133 17.7834C58.0436 17.7659 57.3626 17.6932 57.247 17.6932C57.0967 17.6932 56.9583 17.6712 56.8161 17.6712C56.8161 17.6236 56.2572 17.645 56.1831 17.4965C56.0758 17.4731 56.0056 17.4817 55.9432 17.3878C55.8798 17.3878 55.8677 17.3138 55.8121 17.2676C55.6719 17.1502 55.6778 16.9702 55.6507 16.781C55.6267 16.6125 55.5217 16.5326 55.5161 16.3568C55.5126 16.2458 55.528 16.1338 55.5449 16.0243C55.5699 15.8642 55.5136 15.7285 55.4977 15.5722C55.4863 15.4577 55.5393 15.3485 55.5621 15.2385C55.5896 15.1038 55.5479 15.0359 55.5393 14.9001C55.534 14.8148 55.6245 14.3106 55.5939 14.3106C55.5972 14.2509 55.5947 13.8962 55.6376 13.8962C55.6376 13.8479 55.6573 13.6999 55.703 13.6999C55.774 13.3837 55.8131 13.0956 55.8414 12.7322C55.8748 12.2994 56.0521 12.0978 56.0521 11.6484C56.1321 11.6484 56.0973 11.1249 56.1831 11.1249C56.1831 10.9297 56.314 10.7187 56.314 10.5137C56.3529 10.5137 56.4567 9.87464 56.4885 9.77175C56.4885 9.52706 56.5562 9.24784 56.6224 8.96567C56.664 8.78907 56.7019 8.61149 56.7471 8.43578C56.7951 8.25009 56.786 8.09107 56.7769 7.89965C56.7684 7.71941 56.779 7.53857 56.8181 7.36195C56.8547 7.19768 56.8343 7.04694 56.8499 6.88138C56.8658 6.71277 56.8598 6.5413 56.8598 6.37102C56.8598 6.26011 56.9214 6.12082 56.9073 6.01732C56.8613 5.67733 56.8388 5.36409 56.8161 5.03623C56.78 5.03623 56.6853 4.74252 56.6853 4.68718C56.6145 4.68718 56.5898 3.94526 56.6633 3.94526C56.6633 3.86347 56.711 3.79056 56.7216 3.67622C56.7322 3.559 56.7272 3.54579 56.7178 3.38892C56.7007 3.0964 56.7941 2.86206 56.7941 2.58138C56.7941 2.40774 56.8812 2.22225 56.8812 2.02484C56.8681 2.02484 57.1434 1.57603 57.1434 1.52296C57.2167 1.52296 57.2556 1.39203 57.3397 1.39203C57.3877 1.33204 57.5799 1.22677 57.5799 1.1957C57.67 1.1957 57.7145 1.1434 57.8198 1.10839C57.8198 1.0849 58.0294 1.02966 58.0817 1.02108C58.0817 0.877516 58.7614 0.998093 58.8728 1.00479C59.0458 1.01514 59.1322 1.03646 59.2819 1.08667C59.4292 1.13542 59.5206 1.26625 59.6747 1.30471C59.6747 1.39026 60.024 1.41887 60.024 1.47934C60.0957 1.47934 60.2091 1.52266 60.2422 1.58838C60.321 1.58838 60.4384 1.81154 60.4384 1.87201C60.5948 1.87201 60.5604 2.56973 60.564 2.69582C60.5655 2.74813 60.5604 3.00711 60.613 3.00711C60.613 3.23402 60.6173 3.45699 60.6349 3.68342C60.6405 3.75821 60.6809 4.40362 60.6786 4.40362C60.5996 4.63894 60.6786 4.91657 60.6786 5.12385C60.7135 5.12385 60.8095 5.43484 60.8095 5.49483C60.8739 5.49483 60.8158 5.70585 60.8102 5.75182C60.7994 5.84011 60.9623 5.93306 60.9623 6.0182C61.0441 6.06013 61.0931 6.21998 61.0931 6.30207C61.1022 6.30207 61.2242 6.49917 61.2242 6.52039C61.3224 6.56873 61.3219 6.68663 61.4204 6.76033C61.4204 6.85386 61.5576 6.95251 61.5952 7.06589C61.6725 7.29921 62.0534 7.44386 62.0534 7.67688C62.0716 7.67688 62.1408 7.79607 62.1408 7.82961C62.2461 7.8824 62.3287 8.06639 62.4242 8.146C62.4762 8.18922 62.577 8.31207 62.577 8.37521C62.6631 8.45571 62.926 8.62975 62.926 8.74616C63.001 8.78306 63.0786 8.92031 63.1008 9.0081C63.1761 9.07273 63.4281 9.2808 63.4281 9.37908C63.5895 9.4866 63.642 9.80991 63.8858 9.81711C63.9825 9.81989 64.005 9.83388 64.0608 9.75003C64.1144 9.75003 64.0512 9.70613 64.1045 9.70613C64.1391 9.55714 64.2025 9.43401 64.2245 9.32432C64.2341 9.27744 64.304 9.16073 64.2573 9.16073C64.2485 8.99972 64.2573 8.83249 64.2573 8.70247C64.3018 8.70247 64.3593 8.01015 64.3667 7.89523C64.4541 7.89523 64.3702 7.61897 64.3561 7.56913C64.3151 7.42461 64.3667 7.33798 64.3667 7.21862C64.3788 7.21862 64.4318 6.35119 64.4318 6.25835C64.4318 6.15386 64.4424 5.4728 64.4972 5.4728C64.4972 5.37839 64.5354 4.7307 64.5846 4.7307C64.5846 4.62778 64.6109 4.2073 64.694 4.2073C64.7127 4.05596 64.767 3.98521 64.693 3.83978C64.6622 3.77902 64.6723 3.33417 64.7157 3.33417C64.6968 2.99428 64.7374 2.7722 64.7374 2.43951C64.8102 2.43951 64.7081 2.09053 64.7811 2.09053C64.8039 1.90626 64.8496 1.83797 64.9665 1.69759C65.1072 1.52917 65.3194 1.4307 65.5447 1.34833C65.5929 1.34833 65.8722 1.3062 65.8722 1.34833C65.9627 1.34833 66.1521 1.38513 66.1996 1.47934C66.439 1.47934 66.6736 1.61057 66.8323 1.79576C66.878 1.84883 66.9631 1.89194 66.9631 1.95942C67.0053 1.95942 67.0012 2.02199 67.0505 2.04664C67.0505 2.12804 67.1452 2.17146 67.2033 2.22126C67.2033 2.28036 67.2606 2.33967 67.3124 2.3741C67.3124 2.40281 67.3604 2.52682 67.3781 2.52682C67.3781 2.63664 67.4215 2.76192 67.4215 2.86502C67.4215 2.99428 67.6016 3.29964 67.7847 3.27792C67.9095 3.26281 67.9246 3.15855 68.0108 3.09443C68.0108 3.05763 68.1012 2.91977 68.1201 2.91977C68.1201 2.82428 68.2184 2.72838 68.2818 2.65783C68.3787 2.55079 68.4959 2.35366 68.6349 2.30562C68.8758 2.22225 69.4451 2.15517 69.56 2.06853C69.58 1.98991 69.7012 1.7849 69.8 1.7849C69.8409 1.70034 70.3672 1.59279 70.3672 1.58838C70.5513 1.60386 71.0032 1.45656 71.1313 1.41393C71.3626 1.33679 74.0555 1.0477 74.0555 1.17398C74.1692 1.17398 75.4042 1.17696 75.526 1.18257C75.6795 1.18997 77.3723 1.25933 77.3723 1.28302C77.4372 1.28302 77.4824 1.32888 77.5508 1.32199C77.6516 1.31181 78.4808 1.45765 78.6326 1.45765C78.8723 1.45765 78.9844 1.5267 79.2332 1.5342C79.3269 1.53725 80.2745 1.70872 80.2745 1.74128C80.3538 1.74128 80.4635 1.84044 80.5584 1.87201C80.5584 1.88189 80.9418 1.94601 80.9951 1.95942C80.9951 2.00125 81.3169 2.13395 81.3654 2.13395C81.3654 2.19285 81.5839 2.26834 81.5839 2.3741C81.6675 2.41534 81.8458 2.5641 81.8458 2.65783C82.0178 2.74219 82.012 3.0081 82.1731 3.11602C82.1731 3.20048 82.2388 3.17234 82.2388 3.26885C82.2815 3.26885 82.2453 3.32676 82.3042 3.35616C82.3244 3.45848 82.3928 3.61977 82.4785 3.66142C82.4785 3.73522 82.5444 3.74873 82.5656 3.83635C82.6131 3.83635 82.6159 3.96559 82.6242 4.00348C82.6495 4.12097 82.7189 4.28989 82.7189 4.38193C82.8043 4.38193 82.8715 4.69794 82.8715 4.7745C82.8715 4.99166 82.9589 5.21048 82.9589 5.40751C82.9589 5.51258 83.0023 5.61252 83.0023 5.71284C83.0023 5.82779 83.0023 5.97579 83.0023 6.12741C82.9321 6.12741 82.9326 6.71277 82.895 6.82347C82.8283 7.01881 82.7 7.56716 83.0768 7.41128C83.1453 7.38317 83.2642 7.28994 83.2642 7.21862C83.3483 7.14411 83.5261 7.01782 83.5261 6.91296C83.6178 6.86638 83.6032 6.72136 83.7007 6.67301C83.7007 6.57168 83.788 6.54948 83.788 6.45477C83.8848 6.39084 83.8843 6.24216 83.9845 6.19303C83.9845 6.15032 84.0843 5.97481 84.1154 5.97481C84.1154 5.91066 84.2581 5.58194 84.2899 5.58194C84.2899 5.5264 84.395 5.14555 84.4207 5.14555C84.4533 4.9147 84.5788 4.82983 84.6172 4.59987C84.6574 4.59987 84.6826 4.46924 84.6826 4.42534C84.7551 4.38885 84.744 4.31977 84.814 4.26155C84.8986 4.19101 84.887 4.14959 84.9011 4.04353C84.9163 3.92947 84.9883 3.83337 84.9883 3.74901C85.0767 3.70413 85.0592 3.61237 85.1193 3.55238C85.1931 3.47868 85.2128 3.39779 85.3153 3.31244C85.3153 3.27201 85.3449 3.15954 85.3813 3.15954C85.3813 2.95748 85.6684 2.83887 85.8174 2.78856C85.8174 2.74813 86.3004 2.67955 86.363 2.67955C86.363 2.66642 86.8772 2.54852 86.9305 2.54852C87.0366 2.54852 87.6723 2.50639 87.6723 2.46141C87.8671 2.46141 88.7046 2.22126 88.7414 2.22126C88.7414 2.15517 91.8051 1.41393 91.9276 1.41393C91.9276 1.35424 93.2367 1.07061 93.2367 1.04277C93.2966 1.03754 93.6077 1.01782 93.6077 0.95546C93.714 0.95546 93.7635 0.890245 93.8699 0.890245C93.8699 0.894793 94.6119 0.716402 94.6119 0.781034C94.6784 0.781034 94.8738 0.785278 94.8738 0.84635C94.9769 0.84635 95.037 0.977356 95.1358 0.977356C95.2327 1.08864 95.3305 1.1957 95.4631 1.1957C95.4631 1.21414 95.5409 1.23369 95.5717 1.27216C95.6232 1.3358 95.9061 2.00916 95.9291 2.1606C95.9432 2.2562 96.1041 2.69483 96.1172 2.74515Z" fill="#3F5471"/>
<path fill-rule="evenodd" clip-rule="evenodd" d="M125.926 13.438C126.012 13.438 126.42 13.5033 126.527 13.5033C126.568 13.5033 126.69 13.4264 126.69 13.5033C126.831 13.5502 126.916 13.6126 127.04 13.6126C127.172 13.6126 127.25 13.6716 127.352 13.6616C127.453 13.6523 127.541 13.6207 127.641 13.6836C127.714 13.7297 127.761 13.841 127.76 13.9168C127.758 13.9875 127.756 14.0743 127.716 14.1362C127.677 14.1686 125.931 14.398 125.861 14.398C125.861 14.5075 123.977 14.6046 123.762 14.6246C123.704 14.6303 123.526 14.6204 123.526 14.5726C123.393 14.5637 123.123 14.6061 123.09 14.5073C123.031 14.5073 123.05 14.4419 122.981 14.4419C122.981 14.3952 122.872 14.3984 122.835 14.3907C122.795 14.3827 122.588 14.2677 122.588 14.2452C122.443 14.21 122.044 13.9841 122.096 13.7919C122.131 13.6616 122.235 13.5537 122.342 13.4776C122.488 13.3739 122.612 13.4027 122.784 13.4163C122.784 13.3499 123.108 13.4444 123.155 13.4523C123.193 13.4587 123.33 13.4559 123.33 13.5033C123.415 13.4947 124.647 13.4163 124.944 13.4163C124.944 13.4934 125.716 13.3311 125.926 13.438ZM101.661 5.99654C101.821 6.04054 101.825 6.31915 101.845 6.44988C101.859 6.54558 101.908 7.28404 101.944 7.28404C101.939 7.37237 101.949 8.06989 101.9 8.06989C101.9 8.30193 101.835 8.4665 101.835 8.65888C101.748 8.7023 101.813 8.76731 101.726 8.81181C101.726 8.87397 101.58 9.02443 101.529 9.06259C101.382 9.17339 101.259 9.19284 101.062 9.15998C100.894 9.13215 100.727 9.24927 100.557 9.26919C100.475 9.27917 100.155 9.27303 100.155 9.18276C99.9216 8.99581 100.078 8.76405 100.133 8.54977C100.161 8.54977 100.198 8.40285 100.198 8.37525C100.263 8.37525 100.273 8.1569 100.329 8.1569C100.329 8.08911 100.442 7.84937 100.526 7.80795C100.526 7.69202 100.635 7.58695 100.635 7.4587C100.708 7.4587 100.704 7.17327 100.787 7.13134C100.787 7.03612 100.908 6.96588 100.94 6.86968C100.981 6.74882 101.023 6.71824 101.049 6.60774C101.059 6.60774 101.232 6.29352 101.246 6.23679C101.313 6.23679 101.244 6.10575 101.311 6.10575C101.311 5.97128 101.564 5.89708 101.661 5.99654ZM102.948 1.71932C103.052 1.71932 103.109 1.8969 103.188 1.93767C103.198 1.97623 103.688 2.67318 103.792 2.7669C103.853 2.82234 103.952 2.93433 103.952 3.00715C104.008 3.03475 104.127 3.23257 104.127 3.29068C104.193 3.32385 104.218 3.42013 104.235 3.49797C104.262 3.61854 104.41 3.68532 104.41 3.79247C104.469 3.82159 104.519 3.96709 104.519 4.03261C104.559 4.03261 104.606 4.18069 104.606 4.22903C104.679 4.22903 104.717 5.11038 104.727 5.1893C104.754 5.4097 104.868 5.57892 104.868 5.7785C104.949 5.7785 104.958 6.28018 105.021 6.28018C105.021 6.33198 105.155 6.8914 105.174 6.8914C105.174 6.98659 105.222 7.4587 105.283 7.4587C105.288 7.50259 105.317 7.76403 105.348 7.76403C105.348 7.87089 105.392 7.9061 105.392 7.99341C105.392 8.13164 105.417 8.4956 105.648 8.52421C105.776 8.54 105.894 8.30291 105.894 8.22252C105.925 8.22252 105.97 8.09209 105.981 8.04789C106.099 7.98801 106.085 7.77686 106.2 7.72064C106.243 7.58695 106.333 7.5159 106.374 7.39328C106.414 7.27222 106.45 7.20552 106.548 7.13134C106.548 7.08032 106.635 6.95669 106.68 6.93499C106.7 6.85389 106.745 6.84748 106.745 6.78236C106.778 6.75988 106.876 6.66456 106.876 6.62943C107.013 6.62943 107.045 6.38921 107.181 6.38921C107.218 6.31491 107.483 6.09472 107.516 6.00394C107.549 5.91287 107.544 5.85349 107.64 5.82212C107.64 5.81452 107.798 5.69118 107.836 5.69118C107.836 5.65785 108.035 5.53007 108.076 5.51646C108.181 5.48153 108.295 5.46071 108.295 5.40755C108.375 5.40755 108.766 5.11916 108.796 5.05827C108.908 5.05827 108.948 4.88364 109.058 4.88364C109.091 4.83384 109.32 4.73369 109.32 4.70902C109.43 4.68219 109.442 4.64509 109.56 4.6219C109.591 4.55856 109.822 4.48557 109.822 4.44707C109.854 4.44707 109.953 4.40959 109.953 4.38196C110.037 4.36075 110.219 4.28419 110.259 4.20734C110.423 4.20734 110.62 4.00263 110.793 3.97795C110.962 3.95368 111.092 3.8571 111.262 3.81436C111.262 3.791 111.526 3.71551 111.568 3.70515C111.568 3.69431 111.934 3.62327 111.997 3.61094C112.092 3.592 112.153 3.56111 112.244 3.53052C112.29 3.51524 112.441 3.44331 112.441 3.42151C112.772 3.36625 113.469 3.15958 113.51 3.15958C113.51 3.13442 113.742 3.11606 113.794 3.11606C113.794 3.0905 113.973 3.05054 114.011 3.05054C114.011 3.02637 114.367 3.00715 114.426 3.00715C114.426 2.90918 115.477 2.8477 115.567 2.8475C115.674 2.8473 115.749 2.85422 115.834 2.85422C115.955 2.85422 116.026 2.8105 116.172 2.8105C116.289 2.8105 116.482 2.8329 116.603 2.89781C116.685 2.94153 116.767 2.98512 116.849 3.02884C116.877 3.08605 116.979 3.07274 116.979 3.11606C117.118 3.15109 117.216 3.29523 117.299 3.41432C117.377 3.52461 117.487 3.55836 117.583 3.66886C117.663 3.76041 117.719 3.86321 117.809 3.9237C117.809 4.00419 117.853 3.95823 117.853 4.0544C117.853 4.16392 117.968 4.2164 118.049 4.28351C118.185 4.39775 118.179 4.63355 118.332 4.70902C118.397 4.81371 118.406 4.96257 118.42 5.07999C118.486 5.07999 118.556 5.38997 118.572 5.45094C118.647 5.45094 118.677 5.94573 118.691 6.05178C118.721 6.26982 118.682 6.49133 118.682 6.67305C118.682 6.78729 118.707 7.39328 118.616 7.39328C118.616 7.43894 118.605 7.65492 118.572 7.65492C118.572 7.75269 118.507 7.80696 118.507 7.89526C118.46 7.89526 118.368 8.40977 118.289 8.46256C118.289 8.52717 118.251 8.53457 118.201 8.57157C118.149 8.73109 118.032 8.79406 117.983 8.95732C117.954 9.0556 117.923 9.03329 117.896 9.13877C117.836 9.19155 117.721 9.25283 117.721 9.33519C117.672 9.35977 117.59 9.47746 117.59 9.53174C117.468 9.59291 117.422 9.75006 117.285 9.75006C117.285 9.77916 116.628 9.79338 116.565 9.79338C116.565 9.86402 116.278 9.75984 116.238 9.75006C116.189 9.65436 116.145 9.68444 116.074 9.68444C115.986 9.68444 115.539 9.70963 115.539 9.59713C115.442 9.59713 115.388 9.47233 115.277 9.44443C115.25 9.38601 115.115 9.33519 115.059 9.33519C115.059 9.32483 114.935 9.23752 114.899 9.21828C114.848 9.19115 114.793 9.16817 114.749 9.12899C114.719 9.10217 114.699 9.06901 114.688 9.02986C114.644 9.02066 114.609 8.99748 114.583 8.9602C114.487 8.81328 114.453 8.55786 114.483 8.38904C114.488 8.35502 114.514 7.99144 114.514 7.85134C114.545 7.85134 114.515 7.63332 114.492 7.63332C114.492 7.53861 114.555 7.03928 114.627 6.90223C114.697 6.76726 114.688 6.64226 114.688 6.48756C114.688 6.39166 114.624 6.17165 114.535 6.12745C114.535 6.04557 114.367 5.97485 114.296 5.97485C114.18 5.97485 113.969 5.96053 113.859 5.99654C113.859 6.02092 113.677 6.0879 113.63 6.09472C113.52 6.1105 113.399 6.14947 113.292 6.14947C113.292 6.16801 113.134 6.22681 113.095 6.23679C113.095 6.27318 112.853 6.30309 112.79 6.3241C112.655 6.36888 112.622 6.48539 112.484 6.52042C112.484 6.59589 112.266 6.58506 112.266 6.62943C112.142 6.65411 112.117 6.71036 112.004 6.73847C111.902 6.86703 111.808 6.8914 111.698 7.0223C111.532 7.07736 111.484 7.12619 111.349 7.24025C111.349 7.33734 111.187 7.40492 111.131 7.46953C111.038 7.57806 110.941 7.60332 110.847 7.72064C110.78 7.72064 110.542 7.95841 110.542 8.02597C110.442 8.09267 110.425 8.18996 110.324 8.26621C110.324 8.36143 110.171 8.40879 110.171 8.50615C110.058 8.60511 109.974 8.68404 109.931 8.81181C109.875 8.83992 109.735 9.00943 109.735 9.07345C109.654 9.11419 109.581 9.27038 109.56 9.35739C109.474 9.42596 109.448 9.51131 109.363 9.55374C109.363 9.62971 109.298 9.66325 109.298 9.72816C109.279 9.72816 109.122 9.92944 109.113 9.97897C109.102 10.0336 109.005 10.3391 108.971 10.3391C108.971 10.5047 108.826 10.6395 108.811 10.8704C108.8 11.0171 108.835 11.1591 108.823 11.3104C108.821 11.3461 108.771 11.4739 108.84 11.4739C108.84 11.5995 108.995 11.6416 109.058 11.7358C109.197 11.7706 109.23 11.8609 109.352 11.9176C109.41 11.9448 109.445 11.968 109.484 12.0195C109.532 12.0831 109.589 12.0577 109.625 12.1285C109.728 12.1285 109.776 12.3031 109.865 12.3031C109.915 12.3996 110.059 12.4042 110.138 12.4997C110.208 12.5836 110.673 12.811 110.673 12.9141C110.747 12.9141 110.87 13.0241 110.913 13.0887C110.988 13.0887 110.94 13.176 111.044 13.176C111.077 13.176 111.197 13.1903 111.197 13.2194C111.257 13.2194 111.363 13.29 111.393 13.3507C111.481 13.3507 111.556 13.4784 111.655 13.5033C111.655 13.5951 112.048 13.634 112.048 13.6999C112.177 13.6999 112.297 13.8307 112.419 13.8307C112.419 13.9024 112.812 13.9316 112.812 14.0053C112.997 14.0168 113.158 14.0263 113.335 14.0849C113.51 14.1436 113.66 14.2016 113.844 14.2016C113.957 14.2016 114.448 14.2228 114.448 14.1796C114.535 14.1796 115.146 14.1878 115.146 14.1362C115.266 14.1362 115.317 14.0926 115.43 14.0926C115.43 14.0324 115.727 14.0321 115.801 14.027C115.801 13.9936 116.099 13.8527 116.15 13.8527C116.175 13.8027 116.238 13.8075 116.238 13.765C116.341 13.765 116.37 13.6871 116.434 13.6126C116.503 13.6126 116.727 13.4755 116.772 13.4163C116.842 13.323 116.989 13.176 117.111 13.176C117.133 13.1297 117.273 13.067 117.329 13.067C117.329 13.0031 117.545 13.028 117.59 13.045C117.59 13.0986 117.634 13.0354 117.634 13.0887C117.737 13.0887 117.758 13.1815 117.809 13.2634C117.895 13.292 117.932 13.2823 117.961 13.3724C118.011 13.3972 117.992 13.438 118.027 13.438C118.027 13.5058 118.158 13.5569 118.158 13.5904C118.341 13.732 118.616 13.5056 118.616 13.3507C118.787 13.3507 118.623 11.9758 118.703 11.9758C118.703 11.8089 118.835 11.6118 118.835 11.4303C118.904 11.4303 118.9 10.9286 118.987 10.9286C118.987 10.7598 119.08 10.6313 119.14 10.4483C119.201 10.4483 119.203 9.99 119.292 9.99C119.292 9.92125 119.449 9.4225 119.489 9.4225C119.489 9.3653 119.654 8.85521 119.685 8.85521C119.685 8.82414 119.727 8.68058 119.751 8.68058C119.751 8.651 119.834 8.46256 119.86 8.46256C119.875 8.37179 120.026 7.98258 120.078 7.98258C120.078 7.84937 120.215 7.71243 120.242 7.57874C120.257 7.50259 120.34 7.42356 120.34 7.34966C120.377 7.34966 120.444 7.13508 120.514 7.08772C120.514 7.02013 120.534 7.05221 120.558 6.95669C120.587 6.95669 120.594 6.82646 120.604 6.78908C120.644 6.62362 120.649 6.44485 120.602 6.28018C120.602 6.15094 120.569 6.05079 120.557 5.9259C120.549 5.83818 120.602 5.72473 120.602 5.60387C120.629 5.60387 120.691 5.2112 120.755 5.2112C120.755 5.12881 120.898 4.77453 120.973 4.77453C121.001 4.66461 121.04 4.43672 121.136 4.35986C121.21 4.30157 121.281 4.12002 121.388 4.12002C121.455 4.01889 121.551 3.99818 121.639 3.89054C121.737 3.77026 121.796 3.72705 121.933 3.72705C121.933 3.65928 122.382 3.62079 122.479 3.58963C122.653 3.53368 122.828 3.47774 123.002 3.42151C123.199 3.42151 123.324 3.39694 123.515 3.38353C123.735 3.36774 125.403 3.05991 125.403 3.09446C125.6 3.09446 127.049 2.79206 127.383 2.77223C127.689 2.75458 128.01 2.59513 128.349 2.57796C128.458 2.57195 129.178 2.55083 129.178 2.48324C129.474 2.48324 129.677 2.46144 129.92 2.46144C129.92 2.40234 130.431 2.37413 130.52 2.37413C130.76 2.37413 131.89 2.15866 131.971 2.14485C132.075 2.12757 132.346 2.1199 132.457 2.06938C132.565 2.02003 133.501 1.83525 133.608 1.82863C133.608 1.75612 134.001 1.70404 134.001 1.63221C134.081 1.63221 134.634 1.58397 134.634 1.54499C134.808 1.51974 134.927 1.49713 135.096 1.55358C135.175 1.58003 135.253 1.60617 135.332 1.63221C135.392 1.69841 135.48 1.85035 135.572 1.85035C135.615 1.90708 135.724 1.9929 135.724 2.04667C135.84 2.14288 135.945 2.28119 136.052 2.35223C136.052 2.42722 136.139 2.46352 136.139 2.54856C136.195 2.54856 136.262 2.7743 136.336 2.8105C136.381 2.94893 136.493 3.02834 136.532 3.18178C136.556 3.18178 136.663 3.43513 136.663 3.48711C136.691 3.48711 136.744 3.79247 136.794 3.79247C136.787 3.8795 136.919 5.58197 136.794 5.58197C136.794 5.70864 136.784 5.79822 136.664 5.87617C136.553 5.94722 136.4 6.02268 136.282 5.98538C136.162 5.94769 136.164 5.97485 136.052 5.97485C135.86 5.97485 135.699 5.95323 135.512 5.90923C135.295 5.85793 134.437 5.80019 134.154 5.80019C134 5.84361 133.839 5.84361 133.68 5.84361C133.531 5.84361 133.436 5.88751 133.303 5.88751C133.167 5.88751 133.06 5.91218 132.929 5.93289C132.794 5.95411 132.723 5.91415 132.615 5.89837C132.579 5.89314 132.407 5.92107 132.407 5.95282C132.239 5.95282 132.005 5.9111 131.845 5.96565C131.729 6.00541 130.992 5.9995 130.875 6.02958C130.793 6.05052 130.663 6.09174 130.596 6.08375C130.446 6.06532 130.358 6.05673 130.213 6.10229C130.065 6.14846 129.958 6.10575 129.844 6.10575C129.717 6.10575 129.555 6.12283 129.396 6.14947C129.396 6.19483 128.939 6.19287 128.87 6.19425C128.775 6.19683 128.022 6.28265 128.022 6.28018C127.911 6.29056 127.018 6.34451 127.018 6.3458C126.751 6.37194 126.656 6.45185 126.392 6.46221C126.288 6.46607 124.748 6.65805 124.748 6.71675C124.599 6.75395 124.623 6.80653 124.508 6.90223C124.351 7.03296 124.253 7.09906 124.093 7.21865C124.093 7.29559 123.973 7.4055 123.941 7.50229C123.889 7.50229 123.906 7.63332 123.853 7.63332C123.853 7.75221 123.527 8.19075 123.519 8.29531C123.502 8.52027 123.525 8.64408 123.701 8.78981C123.946 8.78981 124.158 8.85521 124.421 8.85521C124.421 8.9013 124.722 8.89074 124.77 8.88796C124.953 8.87781 125.098 8.90741 125.294 8.92082C125.546 8.92082 125.777 8.94669 126.041 8.98692C126.174 9.00667 126.256 8.96424 126.363 8.96424C126.363 8.92863 126.726 8.92547 126.775 8.92694C126.839 8.92921 127.442 8.83351 127.542 8.83351C127.542 8.85521 128.049 8.71235 128.109 8.7025C128.255 8.48317 128.485 8.49017 128.72 8.54977C128.72 8.54808 128.911 8.63719 128.938 8.63719C128.968 8.67606 129.134 8.77501 129.134 8.78981C129.175 8.78981 129.309 8.83646 129.309 8.87713C129.416 8.87713 129.454 9.03625 129.527 9.07345C129.527 9.12457 130.247 10.2266 130.247 10.3174C130.352 10.3714 130.356 10.5675 130.356 10.6666C130.356 10.8037 130.4 10.8668 130.4 10.9828C130.4 11.1446 130.402 11.3064 130.402 11.4682C130.403 11.5906 130.384 12.1722 130.269 12.1722C130.269 12.2551 130.233 12.3184 130.16 12.3796C130.064 12.4595 129.833 12.7051 129.833 12.8487C129.787 12.9575 129.374 13.2022 129.374 13.2416C129.193 13.2416 129.044 13.3008 128.872 13.3581C128.758 13.3961 128.657 13.4814 128.567 13.4814C128.567 13.5255 128.398 13.5835 128.359 13.6343C128.209 13.8351 128.477 14.0916 128.633 14.2344C128.716 14.3106 128.801 14.3817 128.829 14.4854C128.981 14.5154 129.09 14.649 129.134 14.7911C129.134 15.0886 129.083 16.5147 129.026 16.5147C129.026 16.5933 128.766 17.4186 128.583 17.4899C128.488 17.5269 127.626 17.9551 127.454 17.9551C127.454 18.1342 124.093 18.4613 123.679 18.4593C123.618 18.459 123.002 18.4943 123.002 18.4131C122.792 18.4131 122.539 18.3458 122.348 18.2824C122.261 18.2536 121.284 18.0365 121.191 17.8458C121.133 17.8458 120.992 17.7331 120.951 17.6824C120.911 17.6315 120.723 17.5186 120.668 17.5186C120.634 17.4531 120.582 17.454 120.514 17.4312C120.473 17.379 120.454 17.3222 120.384 17.3222C120.316 17.2198 120.174 17.1219 120.078 17.0169C120.041 17.0169 119.904 16.9311 119.904 16.9079C119.825 16.8551 119.865 16.8331 119.794 16.7985C119.794 16.6841 119.69 16.6757 119.642 16.5803C119.55 16.5803 119.417 16.4093 119.358 16.3401C119.309 16.3152 119.205 16.1699 119.205 16.122C119.108 16.0448 119.1 15.9737 119.031 15.904C118.997 15.8695 118.813 15.7912 118.813 15.8167C118.641 15.8167 118.555 16.2093 118.485 16.2093C118.485 16.286 118.401 16.3674 118.387 16.4496C118.38 16.4886 118.315 16.711 118.267 16.711C118.267 16.7791 118.142 17.0477 118.071 17.082C118.071 17.1239 117.863 17.4534 117.853 17.4534C117.853 17.5151 117.764 17.6288 117.711 17.6712C117.605 17.7563 117.612 17.8826 117.503 17.9551C117.39 18.0868 117.283 18.1288 117.176 18.2432C117.054 18.3727 116.916 18.5654 116.751 18.5989C116.587 18.6319 116.484 18.7405 116.314 18.7405C116.219 18.7405 116.147 18.7873 116.019 18.7952C115.826 18.8068 115.655 18.8362 115.443 18.8455C115.185 18.8564 114.862 18.7938 114.575 18.7799C114.426 18.773 114.262 18.7405 114.143 18.7405C114.037 18.7405 113.987 18.6751 113.881 18.6751C113.845 18.6751 113.597 18.7252 113.597 18.6537C113.48 18.6339 113.453 18.593 113.357 18.5772C113.186 18.5486 113.069 18.4457 112.892 18.4279C112.752 18.4139 112.696 18.3542 112.572 18.3332C112.52 18.3246 112.266 18.2832 112.266 18.2171C112.22 18.2112 111.982 18.1837 111.982 18.1298C111.885 18.1298 111.828 18.0474 111.72 18.0204C111.72 17.9635 111.284 17.8688 111.284 17.8458C111.244 17.8458 111.066 17.8078 111.066 17.7585C110.951 17.7585 110.868 17.5839 110.738 17.5839C110.738 17.5462 110.482 17.4312 110.433 17.4312C110.433 17.4081 110.275 17.3222 110.237 17.3222C110.178 17.2076 110.031 17.2413 109.975 17.1259C109.921 17.1259 109.802 17.044 109.778 16.9947C109.736 16.9947 109.661 16.9648 109.625 16.9293C109.578 16.8819 109.478 16.822 109.407 16.7985C109.312 16.6841 109.232 16.6432 109.123 16.5803C109.041 16.5803 108.898 16.4631 108.84 16.3948C108.769 16.312 108.693 16.2621 108.6 16.2311C108.56 16.1516 108.441 16.1196 108.381 16.0453C108.289 15.9292 108.156 15.9144 108.076 15.7945C107.892 15.6642 107.746 15.4502 107.552 15.4018C107.393 15.2015 107.201 15.1246 107.036 14.9361C106.967 14.8577 106.924 14.8537 106.898 14.7472C106.846 14.7053 106.788 14.6867 106.788 14.6162C106.745 14.5627 106.693 14.5997 106.658 14.5289C106.593 14.5289 106.287 14.1296 106.287 14.027C106.114 13.8984 106.093 13.6669 105.916 13.547C105.916 13.4738 105.872 13.511 105.872 13.438C105.786 13.3808 105.795 13.3181 105.725 13.2416C105.665 13.176 105.605 13.1104 105.545 13.045C105.479 13.045 105.414 13.045 105.348 13.045C105.355 13.0956 105.34 13.1175 105.305 13.1107C105.305 13.1782 105.164 13.6343 105.13 13.6343C105.114 13.988 105.039 14.338 105.051 14.6919C105.06 14.9993 105.174 15.3046 105.174 15.6055C105.174 15.9821 105.217 16.3363 105.217 16.6895C105.148 16.6895 105.18 17.2468 105.166 17.3491C105.154 17.4456 105.132 17.5906 105.043 17.6496C105.043 17.7149 104.958 17.8994 104.941 17.9849C104.907 18.151 104.814 18.272 104.701 18.4195C104.636 18.5062 104.53 18.5747 104.432 18.6312C104.432 18.6889 104.257 18.7047 104.257 18.7405C104.204 18.7405 103.908 18.7604 103.908 18.7188C103.78 18.7188 103.897 18.6971 103.799 18.6971C103.799 18.6472 103.658 18.6985 103.625 18.7042C103.515 18.7224 103.455 18.6803 103.348 18.6606C103.279 18.6482 102.991 18.5597 102.991 18.5007C102.856 18.5007 102.608 18.4188 102.523 18.3044C102.466 18.2284 102.337 18.0755 102.271 18.0424C102.242 17.9517 102.118 17.872 102.118 17.7805C101.913 17.6744 101.933 17.2749 101.922 17.0603C101.816 16.6859 101.854 16.2641 101.841 15.8788C101.833 15.6198 101.829 15.3354 101.871 15.1036C101.924 14.8172 101.9 14.5372 101.9 14.2307C101.9 14.0477 101.702 13.7922 101.508 13.7433C101.508 13.6225 100.744 13.6511 100.744 13.6999C100.417 13.692 100.042 13.6999 99.7509 13.6999C99.7107 13.6999 99.3255 13.8159 99.3255 13.8307C99.1477 13.8307 99.0035 13.918 98.8454 13.918C98.8454 13.9249 98.2744 14.0605 98.191 14.0706C98.191 14.1123 97.7323 14.1182 97.7323 14.2016C97.6955 14.2016 97.5798 14.2564 97.5798 14.2889C97.4745 14.3148 97.4103 14.3762 97.3179 14.3762C97.2032 14.5099 97.0724 14.6204 96.9537 14.7492C96.9115 14.795 96.8009 15.0743 96.7723 15.0743C96.7559 15.1241 96.6657 15.2928 96.6412 15.2928C96.6412 15.3737 96.5538 15.4232 96.5538 15.5111C96.4735 15.5641 96.4788 15.6692 96.4013 15.7074C96.4013 15.7343 96.3126 15.9254 96.3139 15.9254C96.297 16.0482 96.2485 16.1102 96.2485 16.2093C96.1924 16.2093 95.9608 16.9513 95.8992 16.9513C95.8722 17.062 95.8401 17.0368 95.812 17.1473C95.7325 17.2002 95.7577 17.262 95.6812 17.3005C95.6155 17.4818 95.5226 17.6004 95.4632 17.7805C95.4137 17.8049 95.4327 17.8458 95.3978 17.8458C95.3978 17.9228 95.3205 17.9601 95.2665 18.0096C95.141 18.1248 95.0349 18.1939 94.9174 18.3258C94.7876 18.369 94.6207 18.6063 94.4669 18.4721C94.3701 18.3873 93.2773 17.834 93.1497 17.8022C93.0903 17.7228 92.9535 17.6722 92.9535 17.5839C92.8305 17.5235 92.7587 17.0603 92.7135 17.0603C92.6819 16.8358 92.6037 16.6042 92.593 16.3556C92.5905 16.3001 92.6054 16.1439 92.6481 16.1439C92.6481 16.066 92.6231 15.7294 92.6913 15.7294C92.7458 15.5155 92.8224 15.3549 92.888 15.0789C92.9322 14.8917 93.1497 14.7295 93.1497 14.5289C93.1825 14.5289 93.2368 14.4135 93.2368 14.3762C93.3336 14.3121 93.3343 14.2325 93.4336 14.1579C93.4336 14.1108 93.4993 13.9614 93.5427 13.94C93.5427 13.8782 93.7241 13.656 93.7612 13.656C93.7612 13.5628 93.9102 13.3087 94.0009 13.2634C94.061 13.0795 94.2408 12.9013 94.2408 12.7178C94.3345 12.7178 94.3456 12.3468 94.4153 12.3468C94.4153 12.2674 94.4858 12.187 94.5027 12.0849C94.5505 12.0849 94.5901 11.8949 94.5901 11.8448C94.7129 11.8448 94.7232 11.3212 94.8081 11.3212C94.8081 11.2354 94.852 11.1737 94.852 11.0519C94.852 10.9345 94.8169 10.8248 94.8427 10.677C94.8657 10.5487 94.8839 10.4256 94.8955 10.2957C94.9561 10.1806 95.093 10.1003 95.1794 10.0046C95.2551 9.92024 95.2857 9.86511 95.3978 9.83737C95.4499 9.75746 95.5128 9.78312 95.5504 9.70616C95.6507 9.70616 95.7593 9.54654 95.8484 9.46642C95.9631 9.36333 96.0401 9.24187 96.0916 9.08648C96.1149 9.01703 96.1727 8.76789 96.2265 8.76789C96.2265 8.69392 96.3927 8.40139 96.445 8.37525C96.445 8.25833 96.5738 8.16311 96.6198 8.02597C96.6746 7.86122 96.7675 7.80201 96.8158 7.6113C96.8749 7.582 96.9251 7.43748 96.9251 7.37136C96.9501 7.37136 97.0337 7.18274 97.0777 7.15293C97.0777 7.05782 97.2042 7.00849 97.2199 6.90223C97.2252 6.86326 97.3217 6.60774 97.3616 6.60774C97.3616 6.52239 97.4353 6.45087 97.4704 6.3458C97.5416 6.3095 97.5222 6.14947 97.5798 6.14947C97.5798 6.05031 97.6636 5.96644 97.6891 5.86551C97.748 5.83621 97.7942 5.66949 97.8417 5.66949C97.8417 5.55523 98.0162 5.4396 98.0162 5.32024C98.0753 5.32024 98.0796 5.13495 98.1471 5.10179C98.2115 4.84043 98.5181 4.71937 98.5181 4.44707C98.5666 4.4229 98.6489 4.32375 98.6489 4.27255C98.7224 4.22312 98.7573 4.16511 98.7803 4.07613C98.9154 4.00844 98.9376 3.76829 99.0636 3.70515C99.0636 3.65878 99.2096 3.42151 99.2382 3.42151C99.295 3.25429 99.6529 3.08754 99.6529 2.91981C99.6817 2.91981 99.74 2.82116 99.74 2.7886C99.8216 2.71313 99.9032 2.63746 99.9843 2.56159C100.07 2.48226 100.147 2.39467 100.225 2.30862C100.31 2.21658 100.441 2.18973 100.482 2.06857C100.579 1.99093 100.758 1.88735 100.809 1.78494C100.887 1.78494 100.943 1.65173 101.006 1.59945C101.1 1.52082 101.125 1.46627 101.246 1.43558C101.382 1.1696 101.87 1.33357 102.075 1.35951C102.108 1.36365 102.228 1.38487 102.228 1.41396C102.296 1.41396 102.429 1.42333 102.517 1.45076C102.654 1.4937 102.905 1.55732 102.948 1.71932Z" fill="#3F5471"/>
<path d="M24.9346 5.6911C24.9181 5.83564 24.8691 5.90242 24.8691 6.01815C24.8465 6.01815 24.738 6.22751 24.738 6.25829C24.69 6.28206 24.5853 6.44732 24.5853 6.49824C24.5382 6.53405 24.4538 6.67296 24.4326 6.67296C24.3912 6.79955 24.2772 6.88636 24.1707 6.98403C24.0909 7.05674 23.9675 7.30588 23.8653 7.30588C23.8403 7.3547 23.778 7.35154 23.778 7.39319C23.6967 7.39319 23.6529 7.48791 23.6033 7.54592C23.5476 7.54592 23.3853 7.67663 23.3526 7.72055C23.311 7.77531 23.2395 7.80637 23.178 7.8187C23.0687 7.84042 22.9523 7.86676 22.813 7.84446C22.7065 7.82759 22.7088 7.69933 22.7088 7.61121C22.6425 7.61121 22.7548 6.92031 22.7667 6.84759C22.7871 6.72507 22.8396 6.65748 22.8396 6.56395C22.9161 6.56395 22.8285 6.17098 22.9051 6.17098C22.9051 6.03295 22.9488 5.99693 22.9488 5.86542C22.9895 5.86542 22.9705 5.51036 22.9705 5.45085C23.0306 5.24319 22.9729 5.07753 22.9592 4.86434C22.9523 4.75975 23.0133 4.31626 23.0579 4.31626C23.0579 4.20775 23.2133 4.01191 23.3196 3.92361C23.5595 3.92705 23.6721 4.05432 23.887 4.05432C23.887 4.08096 24.2421 4.22354 24.3233 4.25067C24.4096 4.36541 24.5529 4.41936 24.6289 4.5343C24.7233 4.5343 24.7586 4.66453 24.8253 4.70893C24.8253 4.74545 24.8977 4.90528 24.9127 4.90528C24.9607 5.05129 24.984 5.13052 24.9945 5.29812C24.9975 5.34589 25.0261 5.6911 24.9346 5.6911ZM29.8663 14.5725C29.8577 14.5725 29.7734 14.316 29.7572 14.2671C29.692 14.2149 29.5908 14.1517 29.5607 14.0925C29.4488 14.055 29.4652 13.8742 29.3425 13.8742C29.2768 13.8163 29.2303 13.7339 29.168 13.6559C28.9401 13.5992 28.9038 13.3133 28.6881 13.2416C28.5777 13.2046 28.5355 13.1375 28.4259 13.1106C28.4065 13.0709 28.2552 12.9796 28.2077 12.9796C28.1433 12.8829 28.0642 12.8824 27.9895 12.7833C27.9513 12.7833 27.7495 12.656 27.7495 12.6304C27.627 12.5998 27.6038 12.5649 27.4659 12.5649C27.3947 12.4829 27.2464 12.2377 27.1386 12.2377C27.1171 12.1953 26.9451 12.0848 26.8984 12.0848C26.81 11.9787 26.7289 11.9353 26.6364 11.8337C26.5379 11.7257 26.5001 11.6146 26.3965 11.5283C26.3104 11.4568 26.1346 11.3394 26.1346 11.2338C26.0651 11.2338 26.0803 11.004 26.1023 10.9571C26.1404 10.8762 26.2099 10.8234 26.2743 10.7652C26.3483 10.6984 26.3965 10.6128 26.3965 10.5355C26.4576 10.5355 26.8034 10.1721 26.8534 10.0879C26.9173 9.98065 26.9769 9.91957 27.0729 9.83729C27.0954 9.76942 27.0949 9.71752 27.1603 9.68436C27.1701 9.63523 27.2214 9.44434 27.2696 9.44434C27.2696 9.34596 27.4338 9.2557 27.455 9.14982C27.4846 9.00115 27.6404 8.89952 27.6404 8.74611C27.6866 8.74611 27.7932 8.32404 27.7932 8.26612C27.87 8.26612 27.7819 7.87318 27.8589 7.87318C27.8589 7.83547 27.9018 7.65483 27.9241 7.65483C27.9536 7.53652 28.0114 7.49579 28.0114 7.38213C28.0114 7.27213 28.071 7.17525 28.0986 7.06584C28.1137 7.06584 28.1642 6.89889 28.1642 6.86959C28.2246 6.86959 28.2077 6.62384 28.2077 6.55822C28.2077 6.40777 28.1966 6.22139 28.2042 6.04005C28.2092 5.92442 28.1642 5.88644 28.1642 5.75671C28.1552 5.75671 28.216 5.32015 28.0986 5.32015C28.0986 5.12133 28.0114 4.97728 28.0114 4.79624C27.9814 4.79624 27.8804 4.47954 27.8804 4.42529C27.8364 4.42529 27.801 4.18257 27.7932 4.11994C27.7624 4.11994 27.7058 3.96799 27.7058 3.92361C27.5929 3.92361 27.6159 3.42143 27.4876 3.42143C27.4876 3.30944 27.3131 3.2464 27.3131 3.13776C27.2709 3.13776 26.9282 2.55716 26.8984 2.39584C26.8673 2.39584 26.7966 2.22566 26.7567 2.17752C26.6907 2.09829 26.4619 1.91656 26.4619 1.82854C26.3834 1.77518 26.3111 1.58832 26.2003 1.58832C26.0712 1.43845 26.0219 1.41269 25.8363 1.35568C25.6466 1.29726 25.7186 1.20305 25.5999 1.10834C25.4724 1.00572 25.4332 0.977306 25.2619 0.955408C25.2619 0.872034 24.7819 0.897697 24.7819 0.824678C24.5316 0.824678 24.2974 0.69367 24.0613 0.69367C24.0613 0.659422 23.8664 0.581984 23.8271 0.579029C23.7453 0.573599 23.6634 0.568169 23.5814 0.562738C23.5506 0.500301 23.516 0.510153 23.4508 0.497322C23.4508 0.421652 23.0495 0.344694 22.9705 0.344694C22.9705 0.343229 22.4052 0.257381 22.3487 0.257381C22.2173 0.257381 21.5739 0.289154 21.5739 0.410009C21.4795 0.410009 21.468 0.45373 21.3555 0.45373C21.3555 0.471687 21.0689 0.497322 21.0283 0.497322C21.0283 0.571123 20.6356 0.580494 20.6356 0.650051C20.5098 0.650051 20.3441 0.747721 20.2209 0.868601C20.1768 0.933714 20.0338 1.06462 19.959 1.06462C19.9072 1.16951 19.7408 1.23609 19.7408 1.34828C19.4857 1.52122 19.4748 1.90078 19.3152 2.16666C19.176 2.3988 19.1256 2.57294 19.1385 2.83241C19.151 3.08498 19.111 3.27559 19.1854 3.53981C19.2161 3.64932 19.239 3.76654 19.239 3.85789C19.2653 3.85789 19.3264 4.03252 19.3264 4.07604C19.3508 4.07604 19.435 4.26496 19.479 4.29456C19.479 4.34606 19.5569 4.46426 19.6098 4.49091C19.6098 4.5343 19.7925 4.77849 19.8281 4.79624C19.8695 4.85792 20.0021 4.95124 20.0156 5.02318C20.024 5.06836 20.0945 5.32015 20.0244 5.32015C20.0244 5.41062 19.9777 5.44858 19.959 5.56009C19.8687 5.56009 19.7843 5.98926 19.7843 6.06207C19.7244 6.06207 19.7063 6.52034 19.6317 6.52034C19.6317 6.84936 19.384 7.05636 19.3372 7.38213C19.3179 7.51778 19.2605 7.62187 19.2605 7.72055C19.2328 7.72055 19.1952 7.8192 19.1952 7.85125C19.1636 7.85125 19.1296 7.98249 19.0862 8.00418C19.0862 8.09594 18.9677 8.15957 18.9117 8.24423C18.8567 8.24423 18.7912 8.27699 18.7151 8.28785C18.7151 8.33599 18.5553 8.30944 18.5189 8.30944C18.5189 8.34851 18.3014 8.35344 18.257 8.35344C18.257 8.35215 18.0636 8.49106 18.0375 8.55719C17.9875 8.68446 18.0159 8.79299 17.8807 8.8727C17.7592 8.94443 17.6999 8.9686 17.6785 9.09536C17.657 9.2246 17.6333 9.37428 17.624 9.53165C17.5862 9.667 17.6132 9.81627 17.6126 9.95471C17.6121 10.109 17.5735 10.2581 17.5876 10.4135C17.6017 10.5701 17.6542 10.7172 17.7113 10.8629C17.728 10.96 17.777 11.0121 17.777 11.0809C17.857 11.1211 17.9223 11.2994 17.9513 11.3868C18.0466 11.4622 18.097 11.529 18.1697 11.6265C18.2006 11.6265 18.2729 11.8011 18.3225 11.8011C18.3225 11.9526 18.3362 12.0504 18.3225 12.216C18.289 12.216 18.2723 13.0018 18.2655 13.0975C18.2429 13.4065 18.1479 13.6939 18.1479 13.9615C18.1479 14.0192 18.0627 14.5945 18.0388 14.5945C18.0388 14.831 18.0345 15.1444 18.0058 15.4093C18.0018 15.4453 17.9202 15.7073 17.9951 15.7073C18.0024 15.8965 18.0097 16.0854 18.017 16.2749C18.0406 16.2749 18.1524 16.7067 18.1697 16.7765C18.1868 16.7765 18.2352 16.9384 18.2352 16.9729C18.2438 16.9729 18.366 17.1502 18.366 17.1914C18.4707 17.2597 18.4551 17.3776 18.5624 17.4312C18.5624 17.5039 18.6896 17.5806 18.7479 17.6275C18.9529 17.7918 19.0738 18.0507 19.3479 18.1023C19.5533 18.1405 20.0028 18.1371 20.0028 18.195C20.0853 18.2032 20.1852 18.2027 20.2428 18.195C20.4502 18.2088 20.5499 18.2308 20.7229 18.1077C20.7229 18.0406 20.8375 17.8544 20.8974 17.8238C20.8974 17.7352 21.0063 17.7123 21.0063 17.6277C21.0807 17.591 21.0618 17.3877 21.1156 17.3877C21.1156 17.3024 21.2029 17.224 21.2029 17.1258C21.2388 17.1258 21.1812 16.4648 21.1812 16.3839C21.0938 16.3839 21.1254 15.8191 21.1211 15.7401C21.1135 15.601 21.0721 15.4269 21.0721 15.2927C21.0721 15.1789 21.0063 15.0545 21.0063 14.9351C21.0063 14.7767 21.0198 14.6184 20.9838 14.4644C20.9566 14.3485 20.9274 14.2099 20.9628 14.0925C20.9931 14.0925 21.0938 13.5548 21.0938 13.5032C21.157 13.5032 21.3337 13.0791 21.3337 13.0233C21.4156 12.9826 21.4563 12.8331 21.5611 12.8139C21.7112 12.7862 21.7258 12.7821 21.8576 12.8997C21.9379 12.9712 22.0442 13.1977 22.163 13.1977C22.2048 13.281 22.3751 13.3989 22.4555 13.4857C22.5407 13.5775 22.6271 13.5528 22.7086 13.6342C22.7523 13.6781 22.8562 13.7257 22.927 13.7433C23.012 13.9167 23.2773 13.9531 23.3852 14.1142C23.4573 14.1142 23.6286 14.2714 23.6798 14.3325C23.7549 14.4225 23.8678 14.4931 23.9742 14.5288C24.015 14.6113 24.1377 14.6425 24.1925 14.7254C24.3092 14.8127 24.3842 14.8803 24.4854 14.9688C24.5607 15.0344 24.6703 15.2054 24.76 15.2054C24.8355 15.2914 24.9386 15.4486 25.0219 15.489C25.0823 15.5706 25.1853 15.6188 25.218 15.6854C25.3235 15.7643 25.3413 15.8556 25.4365 15.9401C25.512 16.0072 25.6398 16.231 25.7416 16.231C25.7416 16.3207 25.926 16.4132 25.9601 16.5146C26.076 16.6199 26.1897 16.7193 26.2874 16.8419C26.3859 16.8419 26.5008 17.002 26.571 17.0819C26.6973 17.0819 26.7514 17.3004 26.8766 17.3004C26.8766 17.3312 27.055 17.3981 27.1057 17.4092C27.3083 17.4541 27.4141 17.5632 27.6606 17.5545C27.7409 17.5512 28.2077 17.589 28.2077 17.4965C28.3277 17.4965 28.6461 17.33 28.6881 17.1692C28.7575 17.1485 28.827 17.1041 28.8843 17.1041C28.9305 17.0089 29.0588 16.9469 29.0588 16.8419C29.0801 16.8057 29.1281 16.711 29.146 16.711C29.1728 16.6049 29.3208 16.5398 29.3208 16.449C29.39 16.3895 29.5607 16.2568 29.5607 16.1657C29.617 16.1167 29.6915 16.1239 29.6915 16.0346C29.8514 15.9279 29.888 15.7091 29.888 15.5326C29.888 15.2347 29.8663 14.865 29.8663 14.5725Z" fill="#3F5471"/>
</svg>
