<svg width="71" height="22" viewBox="0 0 71 22" fill="none" xmlns="http://www.w3.org/2000/svg">
<path d="M0.794922 15.2652V0.677368H3.35745V15.2652H0.794922Z" fill="#3F5471"/>
<path d="M9.91701 4.6814C6.63152 4.6814 4.35791 7.20752 4.35791 10.0989C4.35791 13.3259 6.83133 15.5489 9.94254 15.5489C12.8953 15.5489 15.4575 13.3668 15.4575 10.0919C15.4575 7.33811 13.3343 4.6814 9.91701 4.6814ZM9.88684 7.1534C11.6062 7.1534 12.8718 8.49179 12.8718 10.1082C12.8718 11.822 11.4765 13.0723 9.93326 13.0723C8.10978 13.0723 6.96221 11.627 6.96221 10.1128C6.96221 8.45312 8.25783 7.1534 9.88684 7.1534Z" fill="#3F5471"/>
<path d="M21.896 4.6814C18.6105 4.6814 16.3369 7.20752 16.3369 10.0989C16.3369 13.3259 18.8103 15.5489 21.9215 15.5489C24.8743 15.5489 27.4365 13.3668 27.4365 10.0919C27.4365 8.16346 26.6014 7.3078 26.6014 7.3078L27.3117 7.06424V4.98451H23.6721C23.6721 4.98451 22.8831 4.6814 21.896 4.6814ZM21.8658 7.1534C23.5852 7.1534 24.8508 8.49179 24.8508 10.1082C24.8508 11.822 23.4555 13.0723 21.9123 13.0723C20.0888 13.0723 18.9412 11.627 18.9412 10.1128C18.9412 8.45312 20.2368 7.1534 21.8658 7.1534Z" fill="#3F5471"/>
<path d="M24.8323 15.9774C24.8323 17.6913 23.4369 18.9508 21.8937 18.9508C20.0702 18.9508 18.918 17.4916 18.918 15.9774H16.3184C16.3184 19.2044 18.7918 21.4274 21.903 21.4274C24.8557 21.4274 27.418 19.2523 27.418 15.9774H24.8323Z" fill="#3F5471"/>
<path d="M28.4629 15.2643V4.9845H31.0254V15.2643H28.4629Z" fill="#3F5471"/>
<path d="M33.5133 15.2643V7.28705H32.1392V4.98449H33.5133V1.82776H36.0758V4.98449H37.487V7.28705H36.0758V15.2643H33.5133Z" fill="#3F5471"/>
<path d="M31.4358 2.06494C31.4358 3.00211 30.6761 3.76183 29.7389 3.76183C28.8017 3.76183 28.042 3.00211 28.042 2.06494C28.042 1.12777 28.8017 0.368042 29.7389 0.368042C30.6761 0.368042 31.4358 1.12777 31.4358 2.06494Z" fill="#3F5471"/>
<path d="M43.2485 4.67444C39.9474 4.67444 37.8193 7.20188 37.8193 10.1918C37.8193 13.2815 39.9545 15.5559 43.3018 15.5559C46.4244 15.5559 47.9603 13.6061 47.9603 13.6061L46.2474 11.8908C46.2474 11.8908 44.954 13.2858 43.3343 13.2858C41.9842 13.2858 40.9047 12.5323 40.5281 11.1504H48.5128V10.4448C48.5128 7.62923 46.8831 4.67444 43.2485 4.67444ZM43.1672 6.93057C44.3477 6.93057 45.5549 7.56211 45.8249 9.07065H40.4585C40.671 8.01024 41.5987 6.93057 43.1672 6.93057Z" fill="#3F5471"/>
<path d="M54.9225 15.5572C51.6121 15.5572 49.3564 13.0359 49.3564 10.0631C49.3564 6.99517 51.9057 4.67249 54.9119 4.67249C57.8179 4.67249 59.3054 6.72399 59.3054 6.72399L57.5179 8.50347C57.5179 8.50347 56.4824 7.16558 54.8997 7.16558C53.1456 7.16558 51.9462 8.50742 51.9462 10.1024C51.9462 11.7866 53.222 13.0787 54.88 13.0787C56.4881 13.0787 57.5153 11.743 57.5153 11.743L59.3208 13.5215C59.3208 13.5215 57.8478 15.5572 54.9225 15.5572Z" fill="#3F5471"/>
<path d="M60.2529 15.2718V0.639404H62.8155V6.01541C62.8155 6.01541 63.7966 4.67254 65.931 4.67254C68.6143 4.67254 70.1688 6.66718 70.1688 9.21829V15.2718H67.6063V9.60559C67.6063 7.89171 66.5392 7.18066 65.3571 7.18066C64.0103 7.18066 62.8155 7.94712 62.8155 9.73822V15.2718H60.2529Z" fill="#3F5471"/>
</svg>
