<svg width="139" height="22" viewBox="0 0 139 22" fill="none" xmlns="http://www.w3.org/2000/svg">
<path d="M10.0245 14.9943C10.2141 15.4707 10.154 16.0811 10.0615 16.451C9.89964 17.1077 9.4557 17.7782 8.14237 17.7782C6.91228 17.7782 6.16313 17.0661 6.16313 15.9932V14.0833H0.877441V15.6001C0.877441 19.9933 4.33187 21.3205 8.03601 21.3205C11.5968 21.3205 14.5287 20.1089 14.9957 16.821C15.2362 15.1192 15.0605 14.0047 14.9772 13.5931C14.1448 9.46819 6.67181 8.2381 6.11226 5.93052C6.03457 5.59017 6.0281 5.23732 6.09376 4.89466C6.2325 4.26111 6.66256 3.57208 7.89265 3.57208C9.04875 3.57208 9.71929 4.28424 9.71929 5.3571V6.57794H14.635V5.19062C14.635 0.899175 10.7829 0.228638 7.99902 0.228638C4.49372 0.228638 1.63122 1.38936 1.10866 4.60332C0.969929 5.48195 0.946807 6.2681 1.15491 7.25772C2.01042 11.281 9.00714 12.4463 10.0245 14.9943Z" fill="#3F5471"/>
<path d="M21.9653 0.857652L18.312 20.553H23.6347L26.3307 2.67967H26.4417L29.0637 20.553H34.3587L30.7285 0.853027L21.9653 0.857652ZM51.7233 0.857652L49.2955 15.9147H49.1799L46.7567 0.857652H38.7241L38.2894 20.553H43.219L43.3393 2.84614H43.4502L46.7382 20.553H51.7372L55.0297 2.85077H55.1361L55.261 20.553H60.1859L59.7512 0.853027L51.7233 0.857652Z" fill="#3F5471"/>
<path d="M74.0587 14.9575C74.2483 15.4338 74.1882 16.0442 74.0957 16.4142C73.9338 17.0708 73.4899 17.7414 72.1766 17.7414C70.9465 17.7414 70.1973 17.0292 70.1973 15.9563V14.0465H64.9116V15.5633C64.9116 19.9565 68.366 21.2837 72.0702 21.2837C75.631 21.2837 78.5628 20.0721 79.0299 16.7841C79.2704 15.0823 79.0947 13.9679 79.0114 13.5563C78.179 9.43132 70.706 8.20123 70.1464 5.89366C70.0688 5.5533 70.0623 5.20046 70.1279 4.85779C70.2667 4.22425 70.6967 3.53521 71.9268 3.53521C73.0829 3.53521 73.7535 4.24737 73.7535 5.32023V6.54107H78.6692V5.15375C78.6692 0.86231 74.8171 0.191772 72.0332 0.191772C68.5279 0.191772 65.6654 1.3525 65.1428 4.56645C65.0041 5.44509 64.981 6.23124 65.1891 7.22086C66.0446 11.2441 73.0413 12.4094 74.0587 14.9575Z" fill="#3F5471"/>
<path d="M90.5906 17.6027C91.9594 17.6027 92.3802 16.6593 92.4774 16.1784C92.519 15.9656 92.5236 15.6789 92.5236 15.4246V0.857719H97.5087V14.976C97.5096 15.4079 97.4944 15.8398 97.4625 16.2708C97.1156 19.9472 94.2115 21.1403 90.5906 21.1403C86.9651 21.1403 84.061 19.9472 83.7141 16.2708C83.7003 16.0766 83.6633 15.3367 83.6679 14.976V0.853095H88.653V15.4199C88.6484 15.6789 88.6576 15.9656 88.6992 16.1784C88.7917 16.6593 89.2172 17.6027 90.5906 17.6027ZM114.674 0.857719L114.943 16.3171H114.836L110.304 0.857719H102.998V20.3449H107.84L107.571 4.34914H107.678L112.538 20.3449H119.553V0.857719H114.674ZM131.669 17.3992C133.093 17.3992 133.593 16.4974 133.681 15.9656C133.722 15.7483 133.727 15.4708 133.727 15.2257V12.3586H131.706V9.49147H138.684V14.7725C138.684 15.1425 138.675 15.4107 138.615 16.0674C138.291 19.6559 135.179 20.9369 131.688 20.9369C128.196 20.9369 125.089 19.6559 124.76 16.0674C124.705 15.4107 124.691 15.1425 124.691 14.7725V6.48561C124.691 6.13416 124.737 5.51449 124.774 5.19078C125.213 1.50514 128.196 0.321289 131.688 0.321289C135.179 0.321289 138.24 1.49589 138.601 5.18616C138.666 5.81507 138.647 6.48099 138.647 6.48099V7.14228H133.681V6.03705C133.681 6.03705 133.681 5.57461 133.621 5.28789C133.528 4.8532 133.158 3.85433 131.651 3.85433C130.217 3.85433 129.796 4.80233 129.69 5.28789C129.63 5.54686 129.607 5.89831 129.607 6.2174V15.2211C129.607 15.4708 129.616 15.7483 129.653 15.9703C129.745 16.4974 130.245 17.3992 131.669 17.3992Z" fill="#3F5471"/>
</svg>
