<svg width="120" height="32" viewBox="0 0 120 32" fill="none" xmlns="http://www.w3.org/2000/svg">
<path d="M14.0569 9.32544C11.9104 9.32544 10.6658 10.2787 10.0705 10.9142C9.99836 10.3493 9.61956 9.62553 8.14044 9.62553H4.91162V12.9089H6.2284C6.44486 12.9089 6.51701 12.9795 6.51701 13.1914V28.2137H10.3411V22.6002V22.1765C10.9363 22.7061 12.0727 23.4475 13.8585 23.4475C17.5924 23.4475 20.2079 20.5525 20.2079 16.3865C20.226 12.1675 17.7367 9.32544 14.0569 9.32544ZM13.2813 20.1818C11.225 20.1818 10.287 18.2577 10.287 16.4571C10.287 13.6327 11.8563 12.6265 13.3354 12.6265C15.1392 12.6265 16.3658 14.1446 16.3658 16.4218C16.3478 19.0344 14.7965 20.1818 13.2813 20.1818Z" fill="#3F5471"/>
<path d="M25.3669 19.5991V11.6378C25.3669 10.2962 24.6995 9.64307 23.3467 9.64307H19.9194V12.9265H21.2362C21.4527 12.9265 21.5248 12.9971 21.5248 13.2089V21.1349C21.5248 22.4942 22.1742 23.1297 23.5451 23.1297H26.9723V19.8639H25.6556C25.4571 19.8816 25.3669 19.7933 25.3669 19.5991Z" fill="#3F5471"/>
<path d="M35.3597 9.32544C33.2131 9.32544 31.9685 10.2787 31.3552 10.9142C31.2831 10.3493 30.9043 9.62553 29.4251 9.62553H26.2144V12.9089H27.5311C27.7476 12.9089 27.8197 12.9795 27.8197 13.1914V28.2137H31.6799V22.6002V22.1765C32.2752 22.7061 33.4296 23.4475 35.1973 23.4475C38.9312 23.4475 41.5467 20.5525 41.5467 16.3865C41.5467 12.1675 39.0575 9.32544 35.3597 9.32544ZM34.584 20.1818C32.5277 20.1818 31.5897 18.2577 31.5897 16.4571C31.5897 13.6327 33.159 12.6265 34.6381 12.6265C36.442 12.6265 37.6686 14.1446 37.6686 16.4218C37.6686 19.0344 36.1173 20.1818 34.584 20.1818Z" fill="#3F5471"/>
<path d="M48.7444 9.32544C44.6137 9.32544 41.7456 12.2381 41.7456 16.3865C41.7456 20.4819 44.8482 23.4475 49.1412 23.4475C52.5143 23.4475 54.5707 21.4881 54.6609 21.4175L54.8232 21.2763L53.1637 18.5754L52.9112 18.8049C52.8932 18.8225 51.378 20.1818 49.3757 20.1818C47.4637 20.1818 46.0567 19.0344 45.714 17.2338H54.7872L54.8052 16.9867C54.8052 16.9514 54.8954 16.157 54.8954 15.7686C54.8954 11.9204 52.4242 9.32544 48.7444 9.32544ZM45.8583 14.4447C46.2732 13.1208 47.3194 12.3617 48.7444 12.3617C49.8988 12.3617 50.7827 13.2267 50.945 14.4447H45.8583Z" fill="#3F5471"/>
<path d="M68.8207 19.5992V6.55395C68.8207 5.21235 68.1533 4.5592 66.7824 4.5592H63.3552V7.84259H64.672C64.8884 7.84259 64.9606 7.9132 64.9606 8.12503V10.4905C64.4014 9.99621 63.3011 9.34307 61.389 9.34307C57.6732 9.34307 55.0757 12.2557 55.0757 16.4041C55.0757 20.6231 57.5649 23.4652 61.2447 23.4652C63.3552 23.4652 64.5818 22.5119 65.177 21.8411C65.2492 22.4237 65.646 23.1651 67.071 23.1651H70.39V19.8993H69.1093C68.8929 19.8817 68.8207 19.7934 68.8207 19.5992ZM61.9843 20.1818C60.1624 20.1818 58.99 18.699 58.99 16.3865C58.99 14.1446 60.2165 12.6441 62.0384 12.6441C64.1128 12.6441 65.0327 14.5153 65.0327 16.3688C65.0327 19.1932 63.4634 20.1818 61.9843 20.1818Z" fill="#3F5471"/>
<path d="M78.922 9.44897C77.3347 9.44897 75.8555 10.3493 74.9897 11.7791V11.479C74.9897 10.261 74.3043 9.6255 72.9514 9.6255H69.6685V12.9089H70.9852C71.2017 12.9089 71.2739 12.9795 71.2739 13.1913V23.1298H75.0979V17.7281C75.0979 17.0219 75.1881 16.3335 75.3685 15.698C75.9457 13.8268 77.479 13.1737 78.7056 13.1737C79.1385 13.1737 79.4632 13.2266 79.4632 13.2266L79.7879 13.2796V9.55489L79.5534 9.51959C79.5534 9.50193 79.2287 9.44897 78.922 9.44897Z" fill="#3F5471"/>
<path d="M85.2351 19.5991V11.6378C85.2351 10.2962 84.5677 9.64307 83.2149 9.64307H80.1123V12.9265H81.1044C81.3209 12.9265 81.393 12.9971 81.393 13.2089V21.1349C81.393 22.4942 82.0424 23.1297 83.4133 23.1297H86.8405V19.8639H85.5237C85.3253 19.8816 85.2351 19.7933 85.2351 19.5991Z" fill="#3F5471"/>
<path d="M99.6839 9.64307H97.6456C96.4551 9.64307 95.8058 10.0491 95.427 11.0376L92.9377 17.8515C92.8475 18.0987 92.7753 18.3811 92.7032 18.6636C92.631 18.3988 92.5409 18.0987 92.4507 17.8515L89.9614 11.0376C89.5826 10.0314 88.9693 9.64307 87.7427 9.64307H85.5781V12.9265H86.1373C86.444 12.9265 86.5341 13.0324 86.6063 13.2089L90.4665 23.1473H94.7776L98.6377 13.2089C98.7099 13.0324 98.8001 12.9265 99.1067 12.9265H99.702V9.64307H99.6839Z" fill="#3F5471"/>
<path d="M106.286 9.32544C102.155 9.32544 99.2871 12.2381 99.2871 16.3865C99.2871 20.4819 102.39 23.4475 106.683 23.4475C110.056 23.4475 112.112 21.4881 112.202 21.4175L112.365 21.2763L110.705 18.5754L110.453 18.8049C110.435 18.8225 108.919 20.1818 106.935 20.1818C105.023 20.1818 103.616 19.0344 103.274 17.2338H112.347L112.365 16.9867C112.365 16.9514 112.437 16.157 112.437 15.7686C112.437 11.9204 109.966 9.32544 106.286 9.32544ZM103.4 14.4447C103.815 13.1208 104.861 12.3617 106.286 12.3617C107.44 12.3617 108.324 13.2267 108.487 14.4447H103.4Z" fill="#3F5471"/>
<path d="M25.0962 4.5415H21.687V8.05438H25.0962V4.5415Z" fill="#3F5471"/>
<path d="M84.983 4.5415H81.5737V8.05438H84.983V4.5415Z" fill="#3F5471"/>
<path d="M112.365 9.64319H112.87V10.9848H113.249V9.64319H113.754V9.32544H112.365V9.64319Z" fill="#3F5471"/>
<path d="M115.251 9.32544L114.872 10.4729L114.475 9.32544H113.952V10.9848H114.295V9.81971H114.313L114.728 10.9848H115.016L115.431 9.81971V10.9848H115.774V9.32544H115.251Z" fill="#3F5471"/>
</svg>
