<svg width="24" height="24" viewBox="0 0 24 24" fill="none" xmlns="http://www.w3.org/2000/svg">
<path fill-rule="evenodd" clip-rule="evenodd" d="M9.99966 16.0001C14.9702 16.0001 18.9997 12.6423 18.9997 8.50012C18.9997 4.35799 14.9702 1.00012 9.99966 1.00012C5.0291 1.00012 0.999664 4.35799 0.999664 8.50012C0.999664 10.2862 1.74886 11.9265 2.99966 13.2146V17.9999L6.46616 15.4C7.55098 15.7863 8.74536 16.0001 9.99966 16.0001Z" fill="white"/>
<path d="M2.99966 13.2146H3.49966C3.49966 13.0845 3.44898 12.9596 3.35837 12.8662L2.99966 13.2146ZM2.99966 17.9999H2.49966C2.49966 18.1893 2.60667 18.3624 2.77606 18.4471C2.94545 18.5318 3.14816 18.5135 3.29966 18.3999L2.99966 17.9999ZM6.46616 15.4L6.63389 14.929C6.47594 14.8727 6.3003 14.8994 6.16616 15L6.46616 15.4ZM18.4997 8.50012C18.4997 12.2846 14.7833 15.5001 9.99966 15.5001V16.5001C15.1571 16.5001 19.4997 12.9999 19.4997 8.50012H18.4997ZM9.99966 1.50012C14.7833 1.50012 18.4997 4.71561 18.4997 8.50012H19.4997C19.4997 4.00036 15.1571 0.500122 9.99966 0.500122V1.50012ZM1.49966 8.50012C1.49966 4.71561 5.21601 1.50012 9.99966 1.50012V0.500122C4.84219 0.500122 0.499664 4.00036 0.499664 8.50012H1.49966ZM3.35837 12.8662C2.18635 11.6593 1.49966 10.1401 1.49966 8.50012H0.499664C0.499664 10.4323 1.31138 12.1937 2.64095 13.5629L3.35837 12.8662ZM3.49966 17.9999V13.2146H2.49966V17.9999H3.49966ZM6.16616 15L2.69966 17.5999L3.29966 18.3999L6.76616 15.8L6.16616 15ZM9.99966 15.5001C8.80214 15.5001 7.66451 15.296 6.63389 14.929L6.29844 15.871C7.43745 16.2766 8.68858 16.5001 9.99966 16.5001V15.5001Z" fill="black"/>
<mask id="path-3-outside-1" maskUnits="userSpaceOnUse" x="9.00034" y="9.00012" width="15" height="14" fill="black">
<rect fill="white" x="9.00034" y="9.00012" width="15" height="14"/>
<path fill-rule="evenodd" clip-rule="evenodd" d="M16.5003 21.0001C12.9105 21.0001 10.0003 18.5377 10.0003 15.5001C10.0003 12.4626 12.9105 10.0001 16.5003 10.0001C20.0902 10.0001 23.0003 12.4626 23.0003 15.5001C23.0003 16.7933 22.4729 17.9822 21.5902 18.9212C21.4988 19.0185 21.4446 19.1457 21.4446 19.2791V21.0214C21.4446 21.4294 20.9822 21.6656 20.6516 21.4265L19.539 20.6219C19.3993 20.5208 19.2177 20.5001 19.0556 20.5589C18.2712 20.8429 17.4075 21.0001 16.5003 21.0001Z"/>
</mask>
<path fill-rule="evenodd" clip-rule="evenodd" d="M16.5003 21.0001C12.9105 21.0001 10.0003 18.5377 10.0003 15.5001C10.0003 12.4626 12.9105 10.0001 16.5003 10.0001C20.0902 10.0001 23.0003 12.4626 23.0003 15.5001C23.0003 16.7933 22.4729 17.9822 21.5902 18.9212C21.4988 19.0185 21.4446 19.1457 21.4446 19.2791V21.0214C21.4446 21.4294 20.9822 21.6656 20.6516 21.4265L19.539 20.6219C19.3993 20.5208 19.2177 20.5001 19.0556 20.5589C18.2712 20.8429 17.4075 21.0001 16.5003 21.0001Z" fill="#0568FD"/>
<path d="M19.539 20.6219L18.953 21.4322L19.539 20.6219ZM19.0556 20.5589L19.396 21.4991L19.0556 20.5589ZM20.6516 21.4265L21.2376 20.6162L20.6516 21.4265ZM21.5902 18.9212L20.8615 18.2363L21.5902 18.9212ZM11.0003 15.5001C11.0003 17.8353 13.2997 20.0001 16.5003 20.0001V22.0001C12.5213 22.0001 9.00034 19.2401 9.00034 15.5001H11.0003ZM16.5003 11.0001C13.2997 11.0001 11.0003 13.1649 11.0003 15.5001H9.00034C9.00034 11.7602 12.5213 9.00012 16.5003 9.00012V11.0001ZM22.0003 15.5001C22.0003 13.1649 19.701 11.0001 16.5003 11.0001V9.00012C20.4794 9.00012 24.0003 11.7602 24.0003 15.5001H22.0003ZM20.8615 18.2363C21.5908 17.4606 22.0003 16.5099 22.0003 15.5001H24.0003C24.0003 17.0766 23.3551 18.5038 22.3188 19.6062L20.8615 18.2363ZM20.4446 21.0214V19.2791H22.4446V21.0214H20.4446ZM20.125 19.8116L21.2376 20.6162L20.0656 22.2368L18.953 21.4322L20.125 19.8116ZM16.5003 20.0001C17.2919 20.0001 18.0404 19.8629 18.7151 19.6186L19.396 21.4991C18.502 21.8229 17.523 22.0001 16.5003 22.0001V20.0001ZM18.953 21.4322C19.0986 21.5375 19.2672 21.5458 19.396 21.4991L18.7151 19.6186C19.1682 19.4545 19.6999 19.5042 20.125 19.8116L18.953 21.4322ZM22.4446 21.0214C22.4446 22.2455 21.0575 22.9542 20.0656 22.2368L21.2376 20.6162C20.907 20.3771 20.4446 20.6133 20.4446 21.0214H22.4446ZM22.3188 19.6062C22.3885 19.532 22.4446 19.4189 22.4446 19.2791H20.4446C20.4446 18.8725 20.609 18.5049 20.8615 18.2363L22.3188 19.6062Z" fill="white" mask="url(#path-3-outside-1)"/>
</svg>
