<svg width="24" height="24" viewBox="0 0 24 24" fill="none" xmlns="http://www.w3.org/2000/svg">
<path d="M1 11C1 11.5523 1.44772 12 2 12H3.98344C3.99259 12 4 12.0074 4 12.0166C4 13.3881 5.12843 14.5 6.5 14.5C7.87157 14.5 9 13.3881 9 12.0166C9 12.0074 9.00741 12 9.01656 12H11C11.5523 12 12 11.5523 12 11V8.59787C12 8.58983 11.9934 8.5833 11.9853 8.5833C10.7887 8.5833 9.8 7.61325 9.8 6.41662C9.8 5.22 10.7887 4.24994 11.9853 4.24994C11.9934 4.24994 12 4.24342 12 4.23537V2C12 1.44772 11.5523 1 11 1H2C1.44771 1 1 1.44772 1 2V11Z" fill="white" stroke="black"/>
<path d="M13 1C12.4477 1 12 1.44772 12 2L12 3.98344C12 3.99259 11.9926 4 11.9834 4C10.6119 4 9.5 5.12843 9.5 6.5C9.5 7.87157 10.6119 9 11.9834 9C11.9926 9 12 9.00741 12 9.01656L12 11C12 11.5523 12.4477 12 13 12L15.4021 12C15.4102 12 15.4167 11.9934 15.4167 11.9853C15.4167 10.7887 16.3868 9.8 17.5834 9.8C18.78 9.8 19.7501 10.7887 19.7501 11.9853C19.7501 11.9934 19.7566 12 19.7646 12L22 12C22.5523 12 23 11.5523 23 11L23 2C23 1.44772 22.5523 1 22 1L13 1Z" fill="white" stroke="black"/>
<path d="M23 13C23 12.4477 22.5523 12 22 12L20.0166 12C20.0074 12 20 11.9926 20 11.9834C20 10.6119 18.8716 9.5 17.5 9.5C16.1284 9.5 15 10.6119 15 11.9834C15 11.9926 14.9926 12 14.9834 12L13 12C12.4477 12 12 12.4477 12 13L12 14.9949C12 14.9977 12.0023 15 12.0051 15L12.5 15C13.8807 15 15 16.1193 15 17.5C15 18.8807 13.8807 20 12.5 20L12.0051 20C12.0023 20 12 20.0023 12 20.0051L12 22C12 22.5523 12.4477 23 13 23L22 23C22.5523 23 23 22.5523 23 22L23 13Z" fill="#0568FD" stroke="#0568FD"/>
</svg>
