<svg width="24" height="24" viewBox="0 0 24 24" fill="none" xmlns="http://www.w3.org/2000/svg">
<mask id="path-1-inside-1" fill="white">
<path fill-rule="evenodd" clip-rule="evenodd" d="M17.0276 19.622C17.4591 19.9671 17.5321 20.6009 17.1456 20.9957C15.3304 22.8495 12.7995 23.9999 10 23.9999C4.47715 23.9999 0 19.5227 0 13.9999C0 8.81407 3.94741 4.55021 9.0014 4.04913C9.55099 3.99464 10 4.44761 10 4.9999V13.5193C10 13.8231 10.1381 14.1104 10.3753 14.3001L17.0276 19.622Z"/>
</mask>
<path d="M10.3753 14.3001L11 13.5193L10.3753 14.3001ZM17.1456 20.9957L17.8601 21.6953L17.1456 20.9957ZM16.4311 20.296C14.7962 21.9657 12.5198 22.9999 10 22.9999V24.9999C13.0793 24.9999 15.8645 23.7333 17.8601 21.6953L16.4311 20.296ZM10 22.9999C5.02944 22.9999 1 18.9705 1 13.9999H-1C-1 20.075 3.92487 24.9999 10 24.9999V22.9999ZM1 13.9999C1 9.33325 4.55254 5.49511 9.10006 5.04425L8.90274 3.05401C3.34228 3.6053 -1 8.29488 -1 13.9999H1ZM11 13.5193V4.9999H9V13.5193H11ZM17.6523 18.8411L11 13.5193L9.75061 15.081L16.4029 20.4029L17.6523 18.8411ZM9 13.5193C9 14.1268 9.27618 14.7015 9.75061 15.081L11 13.5193V13.5193H9ZM9.10006 5.04425C9.08637 5.04561 9.06702 5.04391 9.0474 5.03677C9.0291 5.03012 9.0172 5.02123 9.01065 5.01488C8.99883 5.00341 9 4.99632 9 4.9999H11C11 3.92493 10.1069 2.93462 8.90274 3.05401L9.10006 5.04425ZM17.8601 21.6953C18.7076 20.8297 18.4919 19.5128 17.6523 18.8411L16.4029 20.4029C16.4058 20.4052 16.3994 20.4016 16.3978 20.385C16.397 20.3757 16.3975 20.3607 16.4038 20.3421C16.4105 20.3222 16.4214 20.3059 16.4311 20.296L17.8601 21.6953Z" fill="black" mask="url(#path-1-inside-1)"/>
<mask id="path-3-inside-2" fill="white">
<path fill-rule="evenodd" clip-rule="evenodd" d="M20.9098 17.94C21.3335 18.2224 21.9065 18.1444 22.1984 17.7272C23.1541 16.3616 23.7774 14.7462 23.9506 12.9985C24.0051 12.4489 23.5521 12 22.9998 12H15.3026C14.3132 12 13.9247 13.2832 14.7479 13.832L20.9098 17.94Z"/>
</mask>
<path d="M14.7479 13.832L15.3026 13L14.7479 13.832ZM22.1984 17.7272L21.3791 17.1538L22.1984 17.7272ZM20.9098 17.94L20.3551 18.772L20.9098 17.94ZM23.9506 12.9985L22.9555 12.8999L23.9506 12.9985ZM22.9555 12.8999C22.7996 14.472 22.2393 15.9247 21.3791 17.1538L23.0177 18.3006C24.0689 16.7985 24.7551 15.0204 24.9457 13.0972L22.9555 12.8999ZM15.3026 13H22.9998V11H15.3026V13ZM21.4645 17.1079L15.3026 13L14.1932 14.6641L20.3551 18.772L21.4645 17.1079ZM15.3026 11C13.3238 11 12.5467 13.5664 14.1932 14.6641L15.3026 13L15.3026 13V11ZM21.3791 17.1538C21.3869 17.1427 21.3992 17.1306 21.4144 17.1214C21.4288 17.1127 21.4412 17.1092 21.4491 17.1079C21.4635 17.1057 21.4675 17.1099 21.4645 17.1079L20.3551 18.772C21.182 19.3233 22.3814 19.2097 23.0177 18.3006L21.3791 17.1538ZM24.9457 13.0972C25.0651 11.8929 24.0747 11 22.9998 11V13C23.0035 13 22.9964 13.0012 22.9849 12.9893C22.9786 12.9828 22.9696 12.9709 22.963 12.9526C22.9558 12.9329 22.9541 12.9136 22.9555 12.8999L24.9457 13.0972Z" fill="black" mask="url(#path-3-inside-2)"/>
<path fill-rule="evenodd" clip-rule="evenodd" d="M14.9986 0.0491311C14.449 -0.00535772 14 0.44761 14 0.999895V8.9999C14 9.55218 14.4477 9.9999 15 9.9999H23C23.5523 9.9999 24.0053 9.55089 23.9508 9.0013C23.4823 4.27575 19.7241 0.517643 14.9986 0.0491311Z" fill="#0568FD"/>
</svg>
