<svg width="24" height="24" viewBox="0 0 24 24" fill="none" xmlns="http://www.w3.org/2000/svg">
<rect x="0.5" y="1.5" width="23" height="7" rx="1.5" stroke="white"/>
<rect x="0.5" y="8.5" width="23" height="7" rx="1.5" stroke="white"/>
<rect x="0.5" y="15.5" width="23" height="7" rx="1.5" stroke="white"/>
<circle cx="20" cy="5" r="1" fill="#0568FD"/>
<circle cx="16" cy="5" r="1" fill="#0568FD"/>
<rect x="3" y="4" width="1" height="2" rx="0.5" fill="white"/>
<rect x="6" y="4" width="1" height="2" rx="0.5" fill="white"/>
<rect x="9" y="4" width="1" height="2" rx="0.5" fill="white"/>
<circle cx="20" cy="12" r="1" fill="#0568FD"/>
<circle cx="16" cy="12" r="1" fill="#0568FD"/>
<rect x="3" y="11" width="1" height="2" rx="0.5" fill="white"/>
<rect x="6" y="11" width="1" height="2" rx="0.5" fill="white"/>
<rect x="9" y="11" width="1" height="2" rx="0.5" fill="white"/>
<circle cx="20" cy="19" r="1" fill="#0568FD"/>
<circle cx="16" cy="19" r="1" fill="#0568FD"/>
<rect x="3" y="18" width="1" height="2" rx="0.5" fill="white"/>
<rect x="6" y="18" width="1" height="2" rx="0.5" fill="white"/>
<rect x="9" y="18" width="1" height="2" rx="0.5" fill="white"/>
</svg>
