<svg width="24" height="24" viewBox="0 0 24 24" fill="none" xmlns="http://www.w3.org/2000/svg">
<rect x="4" y="1" width="4" height="9" rx="2" fill="#0568FD"/>
<rect x="20" y="14" width="4" height="9" rx="2" fill="#0568FD"/>
<rect x="16" y="14" width="1" height="9" rx="0.5" fill="white"/>
<rect x="19" y="1" width="1" height="9" rx="0.5" fill="white"/>
<rect x="12" y="14" width="1" height="9" rx="0.5" fill="white"/>
<rect x="15" y="1" width="1" height="9" rx="0.5" fill="white"/>
<rect x="8" y="14" width="1" height="9" rx="0.5" fill="white"/>
<rect x="11" y="1" width="1" height="9" rx="0.5" fill="white"/>
<rect x="4" y="14" width="1" height="9" rx="0.5" fill="white"/>
<rect x="23" y="1" width="1" height="9" rx="0.5" fill="white"/>
<rect y="14" width="1" height="9" rx="0.5" fill="white"/>
<rect y="1" width="1" height="9" rx="0.5" fill="white"/>
</svg>
