<svg width="24" height="24" viewBox="0 0 24 24" fill="none" xmlns="http://www.w3.org/2000/svg">
<path d="M20 23.5H6C5.17157 23.5 4.5 22.8284 4.5 22V2C4.5 1.17157 5.17157 0.5 6 0.5H14C14.8284 0.5 15.5 1.17157 15.5 2V5C15.5 5.82843 16.1716 6.5 17 6.5H20C20.8284 6.5 21.5 7.17157 21.5 8V22C21.5 22.8284 20.8284 23.5 20 23.5Z" stroke="white"/>
<path d="M20 23.5H6C5.17157 23.5 4.5 22.8284 4.5 22V2C4.5 1.17157 5.17157 0.5 6 0.5H15.1716C15.5694 0.5 15.9509 0.658035 16.2322 0.93934L21.0607 5.76777C21.342 6.04907 21.5 6.4306 21.5 6.82843V22C21.5 22.8284 20.8284 23.5 20 23.5Z" stroke="white"/>
<path d="M7.94382 7.70108L7.36912 7.14511C6.88453 6.67632 6.11547 6.67632 5.63088 7.14511L5.05618 7.70108C5.00076 7.75469 4.92369 7.77973 4.84734 7.76893L4.05561 7.65695C3.38802 7.56252 2.76583 8.01456 2.64934 8.67866L2.51119 9.46625C2.49787 9.5422 2.45024 9.60775 2.38212 9.6439L1.67577 10.0187C1.08017 10.3347 0.842523 11.0661 1.13862 11.6718L1.48979 12.3902C1.52365 12.4595 1.52365 12.5405 1.48979 12.6098L1.13862 13.3282C0.842523 13.9339 1.08017 14.6653 1.67577 14.9813L2.38212 15.3561C2.45024 15.3922 2.49787 15.4578 2.51119 15.5338L2.64934 16.3213C2.76583 16.9854 3.38802 17.4375 4.05561 17.3431L4.84734 17.2311C4.92369 17.2203 5.00076 17.2453 5.05618 17.2989L5.63088 17.8549C6.11547 18.3237 6.88453 18.3237 7.36912 17.8549L7.94382 17.2989C7.99924 17.2453 8.07631 17.2203 8.15266 17.2311L8.94439 17.3431C9.61198 17.4375 10.2342 16.9854 10.3507 16.3213L10.4888 15.5338C10.5021 15.4578 10.5498 15.3922 10.6179 15.3561L11.3242 14.9813C11.9198 14.6653 12.1575 13.9339 11.8614 13.3282L11.5102 12.6098C11.4763 12.5405 11.4763 12.4595 11.5102 12.3902L11.8614 11.6718C12.1575 11.0661 11.9198 10.3347 11.3242 10.0187L10.6179 9.6439C10.5498 9.60775 10.5021 9.5422 10.4888 9.46625L10.3507 8.67866C10.2342 8.01456 9.61198 7.56252 8.94439 7.65695L8.15266 7.76893C8.07631 7.77973 7.99924 7.75469 7.94382 7.70108Z" fill="#0568FD" stroke="#2D5279"/>
<rect x="12" y="20" width="7" height="1" rx="0.5" fill="white"/>
<rect x="12" y="18" width="7" height="1" rx="0.5" fill="white"/>
</svg>
