<svg width="24" height="24" viewBox="0 0 24 24" fill="none" xmlns="http://www.w3.org/2000/svg">
<g clip-path="url(#clip0)">
<mask id="path-1-inside-1" fill="white">
<path fill-rule="evenodd" clip-rule="evenodd" d="M18.5 18H4.5H4V17.9725C1.75002 17.7238 0 15.8163 0 13.5C0 11.1704 1.77021 9.25426 4.03886 9.02334C4.01327 8.85262 4 8.67786 4 8.5C4 6.567 5.567 5 7.5 5C7.9172 5 8.31736 5.073 8.68839 5.20692C9.69319 3.30002 11.6948 2 14 2C17.0397 2 19.5515 4.26044 19.9461 7.19208C22.2821 7.827 24 9.96288 24 12.5C24 15.369 21.8032 17.725 19 17.9776V18H18.5Z"/>
</mask>
<path d="M4 18H3V19H4V18ZM4 17.9725H5V17.077L4.10988 16.9786L4 17.9725ZM4.03886 9.02334L4.14013 10.0182L5.18328 9.91202L5.02781 8.87507L4.03886 9.02334ZM8.68839 5.20692L8.34889 6.14752L9.16741 6.44296L9.57308 5.67309L8.68839 5.20692ZM19.9461 7.19208L18.955 7.32547L19.0435 7.98305L19.6838 8.15707L19.9461 7.19208ZM19 17.9776L18.9102 16.9816L18 17.0636V17.9776H19ZM19 18V19H20V18H19ZM18.5 17H4.5V19H18.5V17ZM4.5 17H4V19H4.5V17ZM5 18V17.9725H3V18H5ZM4.10988 16.9786C2.36095 16.7853 1 15.3009 1 13.5H-1C-1 16.3317 1.13909 18.6624 3.89012 18.9665L4.10988 16.9786ZM1 13.5C1 11.6887 2.37669 10.1977 4.14013 10.0182L3.9376 8.02848C1.16373 8.31083 -1 10.6521 -1 13.5H1ZM5.02781 8.87507C5.00955 8.75326 5 8.62806 5 8.5H3C3 8.72765 3.01699 8.95197 3.04992 9.17162L5.02781 8.87507ZM5 8.5C5 7.11929 6.11929 6 7.5 6V4C5.01472 4 3 6.01472 3 8.5H5ZM7.5 6C7.7998 6 8.08516 6.05234 8.34889 6.14752L9.02789 4.26631C8.54955 4.09366 8.03461 4 7.5 4V6ZM9.57308 5.67309C10.4117 4.08148 12.0804 3 14 3V1C11.3092 1 8.97463 2.51856 7.80369 4.74075L9.57308 5.67309ZM14 3C16.5323 3 18.6263 4.88342 18.955 7.32547L20.9371 7.05869C20.4767 3.63746 17.5472 1 14 1V3ZM19.6838 8.15707C21.5955 8.67666 23 10.4256 23 12.5H25C25 9.50017 22.9687 6.97734 20.2083 6.22709L19.6838 8.15707ZM23 12.5C23 14.8468 21.2028 16.775 18.9102 16.9816L19.0898 18.9735C22.4037 18.6749 25 15.8912 25 12.5H23ZM18 17.9776V18H20V17.9776H18ZM19 17H18.5V19H19V17Z" fill="white" mask="url(#path-1-inside-1)"/>
<mask id="path-3-outside-2" maskUnits="userSpaceOnUse" x="1.95545" y="8.60272" width="19.2224" height="16.2942" fill="black">
<rect fill="white" x="1.95545" y="8.60272" width="19.2224" height="16.2942"/>
<path fill-rule="evenodd" clip-rule="evenodd" d="M18.0615 13C19.028 14.6741 18.4545 16.8146 16.7804 17.7811C15.5713 18.4792 14.1188 18.3738 13.041 17.6307L12.6757 17.8416L11.7659 18.3668L10.4235 17.9872L10.081 19.3397L8.73713 18.9608L8.46243 20.2741L5.9375 19.9998L6.96243 17.676L11.541 15.0326C11.4363 13.7277 12.0713 12.417 13.2804 11.7189C14.9545 10.7524 17.095 11.326 18.0615 13ZM16.3279 13.9999C16.7421 14.7173 16.4963 15.6347 15.7789 16.0489C15.0614 16.4632 14.144 16.2173 13.7298 15.4999C13.3156 14.7825 13.5614 13.8651 14.2789 13.4509C14.9963 13.0367 15.9137 13.2825 16.3279 13.9999Z"/>
</mask>
<path fill-rule="evenodd" clip-rule="evenodd" d="M18.0615 13C19.028 14.6741 18.4545 16.8146 16.7804 17.7811C15.5713 18.4792 14.1188 18.3738 13.041 17.6307L12.6757 17.8416L11.7659 18.3668L10.4235 17.9872L10.081 19.3397L8.73713 18.9608L8.46243 20.2741L5.9375 19.9998L6.96243 17.676L11.541 15.0326C11.4363 13.7277 12.0713 12.417 13.2804 11.7189C14.9545 10.7524 17.095 11.326 18.0615 13ZM16.3279 13.9999C16.7421 14.7173 16.4963 15.6347 15.7789 16.0489C15.0614 16.4632 14.144 16.2173 13.7298 15.4999C13.3156 14.7825 13.5614 13.8651 14.2789 13.4509C14.9963 13.0367 15.9137 13.2825 16.3279 13.9999Z" fill="#0568FD"/>
<path d="M13.041 17.6307L13.6087 16.8074L13.0884 16.4486L12.541 16.7646L13.041 17.6307ZM12.6757 17.8416L13.1757 18.7076L12.6757 17.8416ZM11.7659 18.3668L11.4938 19.3291L11.9002 19.444L12.2659 19.2329L11.7659 18.3668ZM10.4235 17.9872L10.6956 17.025L9.7064 16.7452L9.45405 17.7417L10.4235 17.9872ZM10.081 19.3397L9.80964 20.3021L10.7982 20.5808L11.0504 19.5851L10.081 19.3397ZM8.73713 18.9608L9.00845 17.9983L7.97759 17.7077L7.75831 18.7561L8.73713 18.9608ZM8.46243 20.2741L8.35444 21.2683L9.25565 21.3662L9.44125 20.4789L8.46243 20.2741ZM5.9375 19.9998L5.02254 19.5963L4.47115 20.8464L5.82951 20.994L5.9375 19.9998ZM6.96243 17.676L6.46243 16.81L6.17937 16.9734L6.04747 17.2725L6.96243 17.676ZM11.541 15.0326L12.041 15.8986L12.5884 15.5826L12.5378 14.9526L11.541 15.0326ZM17.2804 18.6471C19.4328 17.4045 20.1702 14.6523 18.9276 12.5L17.1955 13.5C17.8859 14.6958 17.4762 16.2247 16.2804 16.9151L17.2804 18.6471ZM12.4733 18.4539C13.8569 19.408 15.7245 19.5454 17.2804 18.6471L16.2804 16.9151C15.4181 17.413 14.3807 17.3397 13.6087 16.8074L12.4733 18.4539ZM12.541 16.7646L12.1757 16.9756L13.1757 18.7076L13.541 18.4967L12.541 16.7646ZM12.1757 16.9756L11.2659 17.5008L12.2659 19.2329L13.1757 18.7076L12.1757 16.9756ZM12.038 17.4046L10.6956 17.025L10.1513 18.9495L11.4938 19.3291L12.038 17.4046ZM9.45405 17.7417L9.11157 19.0942L11.0504 19.5851L11.3929 18.2327L9.45405 17.7417ZM10.3523 18.3772L9.00845 17.9983L8.4658 19.9233L9.80964 20.3021L10.3523 18.3772ZM7.75831 18.7561L7.48361 20.0694L9.44125 20.4789L9.71594 19.1656L7.75831 18.7561ZM8.57042 19.28L6.04549 19.0057L5.82951 20.994L8.35444 21.2683L8.57042 19.28ZM6.85246 20.4034L7.87739 18.0796L6.04747 17.2725L5.02254 19.5963L6.85246 20.4034ZM7.46243 18.5421L12.041 15.8986L11.041 14.1666L6.46243 16.81L7.46243 18.5421ZM12.7804 10.8529C11.2245 11.7512 10.4098 13.4374 10.5443 15.1126L12.5378 14.9526C12.4628 14.0179 12.9181 13.0829 13.7804 12.585L12.7804 10.8529ZM18.9276 12.5C17.6849 10.3477 14.9328 9.61027 12.7804 10.8529L13.7804 12.585C14.9762 11.8946 16.5051 12.3043 17.1955 13.5L18.9276 12.5ZM16.2789 16.915C17.4746 16.2246 17.8843 14.6956 17.1939 13.4999L15.4619 14.4999C15.5999 14.7391 15.518 15.0449 15.2789 15.1829L16.2789 16.915ZM12.8638 15.9999C13.5542 17.1956 15.0831 17.6053 16.2789 16.915L15.2789 15.1829C15.0397 15.321 14.7339 15.2391 14.5958 14.9999L12.8638 15.9999ZM13.7789 12.5848C12.5831 13.2752 12.1734 14.8042 12.8638 15.9999L14.5958 14.9999C14.4578 14.7608 14.5397 14.455 14.7789 14.3169L13.7789 12.5848ZM17.1939 13.4999C16.5036 12.3042 14.9746 11.8945 13.7789 12.5848L14.7789 14.3169C15.018 14.1788 15.3238 14.2608 15.4619 14.4999L17.1939 13.4999Z" fill="#2D5279" mask="url(#path-3-outside-2)"/>
</g>
<defs>
<clipPath id="clip0">
<rect width="24" height="24" fill="white"/>
</clipPath>
</defs>
</svg>
